<?xml version="1.0" encoding="UTF-8"?>
<svg width="745px" height="235px" viewBox="0 0 745 235" version="1.1" xmlns="http://www.w3.org/2000/svg" xmlns:xlink="http://www.w3.org/1999/xlink">
    <!-- Generator: Sketch 51.2 (57519) - http://www.bohemiancoding.com/sketch -->
    <title>Group 4</title>
    <desc>Created with Sketch.</desc>
    <defs>
        <path d="M12.2329289,1.22795139 C7.64782026,11.9357639 3.86191099,20.8618056 0.23410891,30.0800347 L13.6017474,28.8826389 C17.2295494,19.6644097 21.0154587,10.7364583 25.6005674,0.0267361111" id="path-1"></path>
        <path d="M0.0208504274,1.24400143 C1.84410446,10.0085649 3.65345821,17.7445849 6.41034805,26.0607111 L20.7091078,24.8623341 C17.9522179,16.5462079 16.1451809,8.81018781 14.3219269,0.0456243728" id="path-3"></path>
        <path d="M0.321035256,1.78861111 C3.49336645,12.1 6.15486218,19.2147222 10.0161774,28.7541667 L23.2614113,27.5330556 C19.4022425,17.9916667 16.7386004,10.8808333 13.5662692,0.569444444" id="path-5"></path>
        <path d="M0.329620726,2.06506667 C6.07330021,11.5045333 11.7783451,20.1852444 18.0714947,29.1847111 L31.318875,27.9585778 C25.0257254,18.9571556 19.3228269,10.2764444 13.5770011,0.836977778" id="path-7"></path>
        <path d="M6.06979107,1.44874074 C4.1260679,1.58725926 2.44413343,1.74207407 0.755248813,1.9082963 L15.0516918,0.884888889 C16.7405764,0.718666667 18.4225109,0.563851852 20.3662341,0.425333333" id="path-9"></path>
        <path d="M0.169822949,2.22085926 C6.74058546,3.12204444 12.2800429,3.82017778 33.097611,4.0026963 L46.5263349,2.57220741 C25.7087668,2.38512593 20.1671336,1.68927407 13.5985469,0.785807407" id="path-11"></path>
        <path d="M0.0976120712,1.36550741 C5.23306984,2.61584074 13.5798249,3.72097407 17.3845141,3.72097407 C19.8584347,3.72097407 20.3187497,4.51957407 18.1764305,6.07644074 C15.3229136,8.12739074 14.9280462,9.54107407 15.0283992,13.0016741 L28.495341,11.7352074 C28.3928063,8.27460741 28.7898553,6.85890741 31.6411906,4.81199074 C33.7835099,3.25310741 33.3231948,2.45450741 30.8492742,2.45450741 C27.044585,2.45450741 18.7000116,1.34937407 13.5623722,0.0990407407" id="path-13"></path>
        <path d="M13.4983214,0.906074074 L0.478038974,1.92785185 C21.8817631,1.92785185 31.6765089,1.59051852 37.2056988,1.15540741 L50.2238716,0.13037037 C44.6946817,0.567111111 34.9020455,0.906074074 13.4983214,0.906074074" id="path-15"></path>
        <path d="M0.832130178,1.40288296 C1.11875279,10.4595985 1.58567028,20.754637 2.5588003,26.745123 L16.8298328,25.5068 C15.8543914,19.5182859 15.3851624,9.22127556 15.0985398,0.16456" id="path-17"></path>
        <path d="M1.01133333,1.86254023 C0.578555556,7.67325862 0.560333333,16.6744828 0.82,24.9172759 L14.8784444,23.6865402 C14.6187778,15.4437471 14.637,6.44252299 15.0675,0.629844828" id="path-19"></path>
        <path d="M13.2525589,1.10814815 L0.215454416,2.13318519 C9.30678585,2.13318519 16.9807652,1.8202963 24.9399048,1.19614815 L37.9770093,0.171111111 C30.019982,0.796888889 22.341778,1.10814815 13.2525589,1.10814815" id="path-21"></path>
        <path d="M5.58359474,1.11466667 C3.61529907,1.27437037 1.85190484,1.45688889 0.210623586,1.67362963 L12.9848832,0.650222222 C14.6261645,0.435111111 16.3916284,0.250962963 18.3599241,0.0912592593" id="path-23"></path>
        <path d="M0.555076923,2.38740741 C3.94651282,3.62168889 8.48805128,4.11220741 12.1927692,4.11220741 C13.2945128,4.11220741 14.3226667,4.06885926 15.2225641,3.98900741 L28.2016923,2.55395556 C27.2996923,2.63380741 26.2715385,2.67715556 25.1718974,2.67715556 C21.4650769,2.67715556 16.9235385,2.18663704 13.53,0.954637037" id="path-25"></path>
        <path d="M2.69469288,2.17295833 C0.288471795,3.78583333 0.00686837607,4.43345833 0.0709732194,6.51039583 L14.1992228,5.21514583 C14.1374074,3.14027083 14.4190108,2.49058333 16.8252319,0.877708333" id="path-27"></path>
        <path d="M14.8234745,0.272474074 L0.554753452,1.70752593 C2.91014415,1.69383704 3.30540598,3.54411852 1.56486703,4.72136296 L15.8312766,3.28859259 C17.5671926,2.11591111 17.1788652,0.272474074 14.8465893,0.272474074 C14.8373434,0.272474074 14.8304089,0.272474074 14.8234745,0.272474074" id="path-29"></path>
        <path d="M0.829580065,2.00016667 C15.5771811,3.00483333 34.129408,3.43383333 60.6121562,3.43383333 L74.1913037,2.28066667 C47.7107559,2.28066667 29.158529,1.85166667 14.4087275,0.847" id="path-31"></path>
        <path d="M0.807384615,1.86266667 C12.4650736,2.72066667 24.9666514,3.14783333 45.2135385,3.29633333 L58.4688183,2.14683333 C38.219784,1.99833333 25.7160589,1.56933333 14.0605172,0.713166667" id="path-33"></path>
        <path d="M0.128687705,1.3037037 C4.07857002,1.82681481 8.00769625,2.09733333 11.7790763,2.09733333 C12.5387488,2.09733333 13.2921946,2.08755556 14.0352623,2.06474074 L26.8479915,1.04133333 C26.1028481,1.06251852 25.3494024,1.07392593 24.5876542,1.07392593 C20.8162742,1.07392593 16.8892235,0.803407407 12.9393412,0.280296296" id="path-35"></path>
        <path d="M1.74212896,1.5235 C0.239924208,2.23116667 -0.130513575,4.80333333 0.0762952489,10.9468333 L14.1006606,9.79733333 C13.8961244,3.652 14.2642896,1.07983333 15.7664943,0.370333333" id="path-37"></path>
        <path d="M13.8948338,0.400074074 L0.437177588,1.59404938 C0.596349478,1.58644444 0.748980057,1.58264198 0.899430199,1.58264198 C3.59226971,1.58264198 4.3968509,2.88308642 1.69092877,4.56758025 L15.1464046,3.3717037 C17.8545071,1.68911111 17.0521064,0.388666667 14.354906,0.388666667 C14.2088167,0.388666667 14.0540057,0.390567901 13.8948338,0.400074074" id="path-39"></path>
        <path d="M0.637966469,1.41777778 C0.889916995,9.34364444 1.35914596,14.5297778 2.44553813,19.5555556 L16.7119477,18.3274667 C15.627867,13.2997333 15.1563266,8.11555556 14.9043761,0.187733333" id="path-41"></path>
        <path d="M2.92723647,2.20519444 C0.938678063,3.87780556 0.561462488,6.04877778 0.615973409,8.04863889 L14.0736296,6.70541667 C14.0191187,4.70555556 14.3963343,2.53244444 16.3848927,0.859833333" id="path-43"></path>
        <path d="M0.149112147,1.46984444 C5.59212674,2.14084444 9.99034537,2.31904444 14.6689285,2.31904444 C17.1527831,2.31904444 17.7682708,3.16824444 16.0510381,4.71264444 L29.5698655,3.32884444 C31.2849079,1.78664444 30.6738008,0.937444444 28.1899463,0.937444444 C23.5091728,0.937444444 19.1109541,0.759244444 13.6679395,0.0860444444" id="path-45"></path>
        <path d="M13.3793767,2.14683333 L0.325655762,3.29633333 C20.6812555,3.14783333 33.6884542,2.72066667 45.1117816,1.86266667 L58.1633879,0.713166667 C46.7379458,1.56933333 33.7328618,1.99833333 13.3793767,2.14683333" id="path-47"></path>
        <path d="M13.6106756,2.28066667 L0.472489442,3.43383333 C25.6591564,3.43383333 43.998983,2.85633333 57.9289082,2.00016667 L71.0649661,0.847 C57.1350408,1.705 38.7973425,2.28066667 13.6106756,2.28066667" id="path-49"></path>
        <path d="M4.40775309,1.72740741 C2.96212346,1.83822222 1.61679392,1.95881481 0.373944919,2.08918519 L13.8316011,1.06414815 C15.0744501,0.935407407 16.4197797,0.814814815 17.8675897,0.70562963" id="path-51"></path>
        <path d="M0.148405983,1.90483333 C4.88165741,2.66383333 8.38268946,3.04516667 10.9460655,3.04516667 C11.541938,3.04516667 12.0905905,3.025 12.5920228,2.98283333 L26.4702308,1.8315 C25.9687984,1.87366667 25.4246432,1.89383333 24.8242735,1.89383333 C22.2608974,1.89383333 18.762114,1.51066667 14.0288625,0.7535" id="path-53"></path>
        <path d="M18.7284963,1.4247619 C11.9978148,4.63833333 5.84325926,7.84994048 0.241444444,10.9044048 L13.3626593,9.67083333 C18.9644741,6.61636905 25.1211556,3.4047619 31.8475852,0.191190476" id="path-55"></path>
        <path d="M0.115369727,1.991 C5.14677171,2.69866667 11.4344218,2.97916667 19.5808065,3.12766667 L32.767139,1.9745 C24.6207543,1.82783333 18.3331042,1.54733333 13.2995658,0.837833333" id="path-57"></path>
        <path d="M22.8787911,1.46208333 C23.2291766,13.4068 20.6785445,15.7642833 0.101559628,18.2831 L13.5337279,17.0166333 C34.1107127,14.4937833 36.6613448,12.1383167 36.315312,0.1936" id="path-59"></path>
        <path d="M0.071954416,2.12055556 C3.88810826,3.1515 7.34330397,3.58355556 10.3744826,3.58355556 C11.3051457,3.58355556 12.1944944,3.54291667 13.0425286,3.46377778 L26.4610388,2.12269444 C25.615179,2.19755556 24.7258304,2.24033333 23.7951672,2.24033333 C20.7661631,2.24033333 17.3087929,1.80613889 13.4926391,0.777333333" id="path-61"></path>
        <path d="M13.6465686,0.780102041 L0.287865762,1.95493197 C0.846282051,1.90442177 1.34409502,1.88010204 1.78130468,1.88010204 C4.99111614,1.88010204 4.94133484,3.20272109 2.48257164,5.74693878 C0.525950226,7.79727891 0.00432880845,9.83078231 0.077918552,12.1673469 L13.434457,10.9943878 C13.3630317,8.65595238 13.8824887,6.62244898 15.8391101,4.5702381 C18.3000377,2.02602041 18.3476546,0.705272109 15.1400075,0.705272109 C14.7027979,0.705272109 14.2071493,0.731462585 13.6465686,0.780102041" id="path-63"></path>
        <path d="M18.5985111,1.40995556 C12.2760074,4.01084444 6.10444444,6.59413333 0.062562963,9.17742222 L13.1859037,7.94933333 C19.2256593,5.36604444 25.3993481,2.78471111 31.7197259,0.181866667" id="path-65"></path>
        <path d="M0.252417201,1.87819608 C-0.221316774,5.9604902 0.222521368,10.3553137 1.56783387,14.1250784 L15.7614557,12.9060196 C14.4161432,9.13819608 13.972305,4.74143137 14.446039,0.659137255" id="path-67"></path>
        <path d="M14.1232467,0.940296296 L0.516060948,1.96533333 C7.03525217,1.86592593 12.4653394,1.70133333 17.0003331,1.36074074 L30.6075188,0.337333333 C26.0703205,0.677925926 20.6424379,0.840888889 14.1232467,0.940296296" id="path-69"></path>
        <path d="M0.600216346,1.06251852 C7.30707826,1.57585185 14.5874802,1.82355556 21.1453996,1.95555556 L34.8659006,0.932148148 C28.3079813,0.800148148 21.0275793,0.550814815 14.3207174,0.0391111111" id="path-71"></path>
        <path d="M13.8589111,0.521698765 L0.73557037,1.8350716 C6.63501481,4.61657778 13.6675778,6.89197531 18.2340667,7.70133086 L31.3531556,6.38586667" id="path-73"></path>
        <path d="M12.4559574,1.3909655 C14.5466131,1.69996834 15.0079705,3.27931624 11.2963293,4.69305476 C8.67573611,5.63823995 6.00734458,9.41292181 0.568730385,23.7340931 L13.3973759,22.4657676 C18.8359901,8.14459639 21.5023035,4.36991453 24.1228967,3.42674897 C27.8345379,2.00897119 27.3731805,0.429623299 25.2804466,0.12062045" id="path-75"></path>
        <path d="M0.02400184,1.3425641 C0.361577754,12.2568205 0.710481719,18.4128718 1.80250582,24.8729744 L15.7858517,23.6330769 C14.6938276,17.1729744 14.3449237,11.0169231 14.0073478,0.104641026" id="path-77"></path>
        <path d="M0.310483786,1.28728205 C-0.0917707391,7.44530769 -0.0349551282,14.3654359 0.287757541,24.8176923 L14.3143956,23.5777949 C13.9916829,13.1255385 13.9325946,6.2034359 14.3393944,0.0473846154" id="path-79"></path>
        <path d="M13.5392966,0.932148148 L0.164690548,1.95555556 C7.5540954,1.95555556 15.2122059,1.57585185 21.8626702,1.06251852 L35.2394433,0.0391111111 C28.586812,0.550814815 20.9287015,0.932148148 13.5392966,0.932148148" id="path-81"></path>
        <path d="M0.752700427,1.88145397 C2.3012356,8.99843069 5.17012409,20.8964439 6.66327532,26.1577672 L20.3364643,24.9114032 C18.8477438,19.6500799 15.9744246,7.75206667 14.4258894,0.633105291" id="path-83"></path>
        <path d="M0.0528210826,1.87429885 C1.8685458,8.58651149 4.97398528,18.6616897 7.21888129,24.9153161 L20.802703,23.6826207 C18.5600079,17.430954 15.4523675,7.35577586 13.6366428,0.645522989" id="path-85"></path>
        <path d="M0.494102564,1.68616092 C4.19041026,8.41601149 9.81266667,17.7170805 14.9408205,25.0407414 L27.9199487,23.8119655 C22.7917949,16.4824253 17.171641,7.18527586 13.4711282,0.455425287" id="path-87"></path>
        <polygon id="path-89" points="0.280832479 0.276601111 26.6913504 0.276601111 26.6913504 8.36074556 0.280832479 8.36074556"></polygon>
        <path d="M0.154793981,1.24727778 C0.312909722,6.21056944 0.587287037,10.3873611 1.54295718,15.6366528 L15.8942859,14.3873889 C14.940941,9.14008333 14.6619132,4.96329167 14.5061227,0" id="path-91"></path>
        <path d="M0.236100427,2.38284444 C4.84864423,3.4482963 11.6247265,4.16696296 21.9551934,4.16696296 C28.6475673,4.16696296 33.4747479,3.94565926 36.9819124,3.56693333 L50.2292927,2.13416296 C46.7221282,2.51517037 41.8949476,2.73419259 35.2047201,2.73419259 C24.8721068,2.73419259 18.0981709,2.01780741 13.4813344,0.952355556" id="path-93"></path>
        <path d="M1.22440046,2.12139583 C0.540782407,5.01302083 0.373365741,9.51752083 0.515204861,14.1725833 L14.8665336,12.8752708 C14.7246944,8.22227083 14.8921111,3.71983333 15.5757292,0.828208333" id="path-95"></path>
        <path d="M3.69911111,1.77303704 C2.47152517,1.86592593 1.3311567,1.96696296 0.273644824,2.07777778 L13.7334815,1.05437037 C14.7888129,0.945185185 15.9270009,0.842518519 17.1589478,0.748" id="path-97"></path>
        <path d="M1.64558494,1.36101235 C1.19484776,1.65190123 0.585432692,1.94279012 0.134695513,2.25079012 L14.3260176,1.05681481 C14.7767548,0.748814815 15.3907692,0.45982716 15.8415064,0.168938272" id="path-99"></path>
        <path d="M5.80568566,1.18311111 C3.4055698,1.35422222 1.52439791,1.55955556 0.461026116,1.76325926 L14.7621026,0.738222222 C15.8231576,0.536148148 17.7043295,0.330814815 20.1067621,0.159703704" id="path-101"></path>
        <path d="M21.5571259,1.77989598 C20.5169751,15.4589882 15.7474502,30.1797825 0.585084842,41.1543073 L13.9596909,39.9409173 C29.1220562,28.9663924 33.8937482,14.2475272 34.929565,0.56650591" id="path-103"></path>
        <path d="M0.0271780303,0.847 C2.51710373,1.02911111 4.65998689,1.11833333 6.48509615,1.11833333 C7.42169289,1.11833333 8.27048368,1.09511111 9.04401224,1.04866667 L21.9493954,0.282333333 C21.1758668,0.327555556 20.3228948,0.350777778 19.3883887,0.350777778 C17.5632794,0.350777778 15.4203963,0.262777778 12.9304706,0.0794444444" id="path-105"></path>
        <path d="M0.567692308,1.29066667 C6.49692308,2.0517037 14.0955897,2.30103704 25.0604615,2.30103704 C33.7230256,2.30103704 40.2430769,2.11525926 45.4847692,1.70133333 L58.4596923,0.676296296 C53.2201026,1.09022222 46.7000513,1.27762963 38.0395897,1.27762963 C27.0747179,1.27762963 19.4739487,1.0282963 13.5447179,0.26562963" id="path-107"></path>
        <path d="M0.651835306,1.89141333 C0.889916995,9.17678667 1.60416206,16.7500667 2.52875115,21.6521067 L16.7951607,20.4528133 C15.8705717,15.55268 15.1563266,7.97749333 14.9182449,0.695933333" id="path-109"></path>
        <path d="M1.21861111,1.207 C0.765333333,6.19744444 0.403166667,13.413 0.642333333,20.7626667 L14.7007778,19.5783333 C14.4616111,12.2267778 14.8237778,5.01122222 15.2770556,0.0188888889" id="path-111"></path>
        <path d="M0.0400655271,2.18435556 C3.15252437,3.06728889 18.4006205,3.96847407 28.1281087,3.96847407 C37.9399454,3.96847407 49.2995767,3.37985185 55.5835383,2.68628148 L68.5985085,1.25351111 C62.3145469,1.9448 50.9570243,2.5357037 41.1430789,2.5357037 C31.4155906,2.5357037 16.1674945,1.63451852 13.0550357,0.749303704" id="path-113"></path>
        <path d="M22.9590784,1.78348668 C22.5065713,10.4668077 21.1490501,27.8200022 19.8283357,36.6416417 C18.5769046,45.37299 15.8055694,48.2200435 0.182166981,49.6301226 L13.5451991,48.4236789 C29.1686014,47.0135997 31.9421018,44.1665462 33.1913677,35.4371191 C34.5120822,26.6135585 35.8717685,9.26036402 36.3221105,0.575121868" id="path-115"></path>
        <path d="M11.5814689,1.74346405 C7.25538264,12.9077563 3.30415118,22.4148029 0.194163708,30.2252859 L13.6431705,28.9887408 C16.7575168,21.1821895 20.7087482,11.6731771 25.0304757,0.506918913" id="path-117"></path>
    </defs>
    <g id="Page-1" stroke="none" stroke-width="1" fill="none" fill-rule="evenodd">
        <g id="iPhone-8" transform="translate(-588.000000, -2191.000000)">
            <g id="Group" transform="translate(169.000000, 2194.000000)">
                <g id="Group-4" transform="translate(420.000000, 0.000000)">
                    <g id="text" transform="translate(60.000000, 57.000000)">
                        <g id="Group-5" transform="translate(0.000000, 102.666667)">
                            <path d="M0,30.3287463 C7.4366309,21.5513393 12.312726,12.9162687 15.4036889,1.68751391 L26.0718779,6.30751391 C21.5621822,17.3939324 17.8385412,26.6319555 14.2704069,36.1744202 L0,30.3287463 Z" id="Fill-1" fill="#FDFDFD"></path>
                            <polygon id="Fill-3" fill="#A0A0A1" points="15.4034759 1.68692084 28.5512519 0.44543175 39.2194408 5.06345486 26.0716648 6.30692084"></polygon>
                        </g>
                        <g id="Group-8" transform="translate(12.264957, 107.555556)">
                            <mask id="mask-2" fill="white">
                                <use xlink:href="#path-1"></use>
                            </mask>
                            <g id="Clip-7"></g>
                            <path d="M12.2322792,1.2271875 L25.5999176,0.0278819444 C21.0169748,10.7376042 17.2288997,19.6636458 13.6010976,28.8799653 L0.233459154,30.0792708 C3.86126123,20.8610417 7.6471705,11.9369097 12.2322792,1.2271875" id="Fill-6" fill="#A3A4A4" mask="url(#mask-2)"></path>
                        </g>
                        <path d="M39.2478632,110.144943 L50.6603583,108.777778 C52.3035404,117.73554 53.9341951,125.640136 56.4188034,134.141526 L42.9163144,135.666667 C42.7847763,126.096508 41.878625,119.25873 39.2478632,110.144943" id="Fill-9" fill="#FDFDFD"></path>
                        <g id="Group-13" transform="translate(52.739316, 107.555556)">
                            <mask id="mask-4" fill="white">
                                <use xlink:href="#path-3"></use>
                            </mask>
                            <g id="Clip-12"></g>
                            <path d="M0.0213137702,1.24495556 L14.3200735,0.0465784946 C16.1433275,8.81114194 17.9526813,16.5452538 20.7095711,24.8632882 L6.4108114,26.0616652 C3.65392156,17.7436308 1.84456781,10.009519 0.0213137702,1.24495556" id="Fill-11" fill="#A3A4A4" mask="url(#mask-4)"></path>
                        </g>
                        <g id="Group-18" transform="translate(42.927350, 105.111111)">
                            <polygon id="Fill-14" fill="#9F9FA0" points="14.8045828 29.9062536 28.3072479 28.6997365 14.1592027 30.2021192 0.656537556 31.4086363"></polygon>
                            <path d="M27.0121122,3.7298284 L38.7689693,0.725062963 C42.0002455,10.9132158 44.7152175,17.9409856 48.6509425,27.3683411 L34.6691646,29.3183647 C32.6258255,20.029336 30.803447,12.8478698 27.0121122,3.7298284" id="Fill-16" fill="#FDFDFD"></path>
                        </g>
                        <g id="Group-21" transform="translate(80.948718, 102.666667)">
                            <mask id="mask-6" fill="white">
                                <use xlink:href="#path-5"></use>
                            </mask>
                            <g id="Clip-20"></g>
                            <path d="M0.320391346,1.78958333 L13.5677717,0.568472222 C16.7379565,10.8798611 19.4015986,17.9926389 23.2629138,27.5340278 L10.0155334,28.7551389 C6.15421827,19.21375 3.49272254,12.1009722 0.320391346,1.78958333" id="Fill-19" fill="#A3A4A4" mask="url(#mask-6)"></path>
                        </g>
                        <g id="Group-26" transform="translate(77.269231, 101.444444)">
                            <polygon id="Fill-22" fill="#9F9FA0" points="14.3765066 30.5100117 27.7067957 29.2531956 13.9035102 31.2865159 0.573221117 32.543332"></polygon>
                            <path d="M34.8671825,0.112473034 C40.6468088,9.77274594 46.3875587,18.6585159 52.7222538,27.8664951 L38.6057973,34.0905367 C34.9600539,23.3335517 30.2236113,13.9814789 24.0185042,4.62740481 L34.8671825,0.112473034 Z" id="Fill-24" fill="#FDFDFD"></path>
                        </g>
                        <g id="Group-29" transform="translate(110.384615, 100.222222)">
                            <mask id="mask-8" fill="white">
                                <use xlink:href="#path-7"></use>
                            </mask>
                            <g id="Clip-28"></g>
                            <path d="M0.329835363,2.06545778 L13.5772157,0.837368889 C19.3208952,10.2768356 25.0259401,18.9575467 31.3190896,27.9570133 L18.0738557,29.1851022 C11.7785597,20.1875911 6.07351485,11.5049244 0.329835363,2.06545778" id="Fill-27" fill="#A3A4A4" mask="url(#mask-8)"></path>
                        </g>
                        <polygon id="Fill-30" fill="#A0A0A1" points="127.940965 129.563732 141.047009 128.333333 127.170146 134.434306 114.064103 135.666667"></polygon>
                        <g id="Group-34" transform="translate(20.850427, 95.333333)">
                            <mask id="mask-10" fill="white">
                                <use xlink:href="#path-9"></use>
                            </mask>
                            <g id="Clip-33"></g>
                            <path d="M6.06886439,1.44906667 L20.3676241,0.425659259 C18.4239009,0.564177778 16.7419665,0.718992593 15.0530819,0.885214815 L0.754322127,1.90862222 C2.44320674,1.7424 4.12514122,1.58758519 6.06886439,1.44906667" id="Fill-32" fill="#A3A4A4" mask="url(#mask-10)"></path>
                        </g>
                        <polygon id="Fill-35" fill="#A5A5A6" points="30.6623932 61.0901653 42.3084418 59.8888889 42.9273504 83.1320569 31.2813018 84.3333333"></polygon>
                        <g id="Group-38" transform="translate(18.397436, 46.444444)">
                            <mask id="mask-12" fill="white">
                                <use xlink:href="#path-11"></use>
                            </mask>
                            <g id="Clip-37"></g>
                            <path d="M0.170258099,2.21949037 L13.598982,0.78672 C20.1675688,1.68790519 25.7070262,2.38603852 46.52677,2.57083852 L33.0980461,4.00360889 C12.2783023,3.81880889 6.73884486,3.12295704 0.170258099,2.21949037" id="Fill-36" fill="#A3A4A4" mask="url(#mask-12)"></path>
                        </g>
                        <polygon id="Fill-39" fill="#A5A5A6" points="63.7777778 31.8059006 75.5689485 30.5555556 76.042735 48.8607661 64.2515643 50.1111111"></polygon>
                        <polygon id="Fill-40" fill="#A5A5A6" points="63.7777778 12.1677655 75.8337288 11 76.042735 18.3877901 63.9867841 19.5555556"></polygon>
                        <g id="Group-43" transform="translate(49.059829, 1.222222)">
                            <mask id="mask-14" fill="white">
                                <use xlink:href="#path-13"></use>
                            </mask>
                            <g id="Clip-42"></g>
                            <path d="M0.0976120712,1.36530574 L13.5623722,0.0988390741 C18.69783,1.34917241 27.044585,2.45632241 30.8492742,2.45632241 C33.3210133,2.45632241 33.7835099,3.25290574 31.6411906,4.81178907 C28.7898553,6.86072241 28.3928063,8.27238907 28.495341,11.7350057 L15.0283992,13.0014724 C14.9280462,9.54087241 15.3229136,8.12718907 18.1764305,6.07825574 C20.3187497,4.51937241 19.8584347,3.72077241 17.3845141,3.72077241 C13.5798249,3.72077241 5.23306984,2.61563907 0.0976120712,1.36530574" id="Fill-41" fill="#A3A4A4" mask="url(#mask-14)"></path>
                        </g>
                        <polygon id="Fill-44" fill="#9F9FA0" points="45.2258142 83.1111111 31.8888889 84.3333333 94.5946986 84.3333333 107.931624 83.1111111"></polygon>
                        <polygon id="Fill-45" fill="#9F9FA0" points="76.911194 19.5555556 63.7777778 20.7777778 88.6636012 20.7777778 101.799145 19.5555556"></polygon>
                        <g id="Group-48" transform="translate(63.777778, 47.666667)">
                            <mask id="mask-16" fill="white">
                                <use xlink:href="#path-15"></use>
                            </mask>
                            <g id="Clip-47"></g>
                            <path d="M0.478249932,1.92801481 L13.4985323,0.904607407 C34.9022564,0.904607407 44.6948927,0.567274074 50.2240826,0.130533333 L37.2038002,1.15557037 C31.6767198,1.58905185 21.881974,1.92801481 0.478249932,1.92801481" id="Fill-46" fill="#A3A4A4" mask="url(#mask-16)"></path>
                        </g>
                        <g id="Group-51" transform="translate(106.705128, 69.666667)">
                            <mask id="mask-18" fill="white">
                                <use xlink:href="#path-17"></use>
                            </mask>
                            <g id="Clip-50"></g>
                            <path d="M0.831667883,1.40288296 L15.0980775,0.16456 C15.3847001,9.22127556 15.8539291,19.5182859 16.8270591,25.5087719 L2.56064947,26.7470948 C1.58751946,20.754637 1.1182905,10.4595985 0.831667883,1.40288296" id="Fill-49" fill="#A3A4A4" mask="url(#mask-18)"></path>
                        </g>
                        <g id="Group-54" transform="translate(106.705128, 46.444444)">
                            <mask id="mask-20" fill="white">
                                <use xlink:href="#path-19"></use>
                            </mask>
                            <g id="Clip-53"></g>
                            <path d="M1.01087778,1.86136437 L15.0693222,0.630628736 C14.6365444,6.4433069 14.6206,15.444531 14.8779889,23.6873241 L0.819544444,24.9180598 C0.562155556,16.6752667 0.5781,7.67404253 1.01087778,1.86136437" id="Fill-52" fill="#A3A4A4" mask="url(#mask-20)"></path>
                        </g>
                        <g id="Group-57" transform="translate(88.307692, 18.333333)">
                            <mask id="mask-22" fill="white">
                                <use xlink:href="#path-21"></use>
                            </mask>
                            <g id="Clip-56"></g>
                            <path d="M0.215454416,2.13253333 L13.2525589,1.10912593 C22.3438903,1.10912593 30.019982,0.796237037 37.974897,0.172088889 L24.9399048,1.1954963 C16.9807652,1.82127407 9.30678585,2.13253333 0.215454416,2.13253333" id="Fill-55" fill="#A3A4A4" mask="url(#mask-22)"></path>
                        </g>
                        <polygon id="Fill-58" fill="#A5A5A6" points="116.517094 19.5278174 128.413891 18.3333333 128.782051 31.8055159 116.885255 33"></polygon>
                        <path d="M94.693806,84.1794429 L93.9868393,60.3470902 L31.4504563,60.3470902 L32.1574231,84.1794429 L94.693806,84.1794429 M106.125976,71.0462494 C106.393244,80.0547258 106.830787,90.2968906 107.738205,96.2554691 C97.7695425,95.3375578 89.6782217,95.0394327 64.604611,95.0394327 C34.058474,95.0394327 27.0103602,95.6376442 19.8372341,96.5555556 C20.4989377,89.6790657 20.7856041,79.7546393 20.5140254,70.5892551 C20.2683114,62.3378595 19.2703674,53.3293832 18.3974359,47.9729389 C24.9045476,48.7476718 30.3921616,49.3478446 51.0148993,49.5047525 L50.2950002,25.2154055 C49.9781584,14.5142849 49.3056778,6.42175863 48.135303,1.22222222 C53.2112381,2.43825865 61.4577467,3.5150393 65.2145853,3.5150393 C67.6587936,3.5150393 68.1135801,4.28977218 65.999146,5.80589502 C63.1799005,7.79862568 62.7876202,9.17353139 62.8889233,12.5392064 L63.1195497,20.3316463 L88.3267944,20.3316463 C98.5691909,20.3316463 107.052792,19.8726906 116.105415,18.9567406 L116.517094,32.8470148 C107.98823,31.7898476 98.9011204,31.4721091 88.8074456,31.4721091 L63.4493238,31.4721091 L63.9838597,49.5047525 C93.8144084,49.5047525 101.5738,48.7476718 106.307028,47.9729389 C105.897505,53.7883389 105.882417,62.7968152 106.125976,71.0462494" id="Fill-59" fill="#FDFDFD"></path>
                        <g id="Group-63" transform="translate(161.897436, 130.777778)">
                            <mask id="mask-24" fill="white">
                                <use xlink:href="#path-23"></use>
                            </mask>
                            <g id="Clip-62"></g>
                            <path d="M5.58380171,1.11564444 L18.3580613,0.092237037 C16.3897657,0.250311111 14.6263714,0.434459259 12.9850902,0.6512 L0.210830557,1.67460741 C1.85211181,1.45786667 3.61550604,1.27371852 5.58380171,1.11564444" id="Fill-61" fill="#A3A4A4" mask="url(#mask-24)"></path>
                        </g>
                        <polygon id="Fill-64" fill="#A5A5A6" points="172.935897 91.6576258 184.436857 90.4444444 185.200855 119.786819 173.699895 121"></polygon>
                        <g id="Group-67" transform="translate(159.444444, 81.888889)">
                            <mask id="mask-26" fill="white">
                                <use xlink:href="#path-25"></use>
                            </mask>
                            <g id="Clip-66"></g>
                            <path d="M0.553394872,2.3887763 L13.5304205,0.956005926 C16.923959,2.18800593 21.4654974,2.67852444 25.1702154,2.67852444 C26.271959,2.67852444 27.3001128,2.6351763 28.2000103,2.55532444 L15.2250872,3.98809481 C14.3230872,4.06794667 13.2949333,4.11129481 12.1931897,4.11129481 C8.48847179,4.11129481 3.94693333,3.6207763 0.553394872,2.3887763" id="Fill-65" fill="#A3A4A4" mask="url(#mask-26)"></path>
                        </g>
                        <g id="Group-70" transform="translate(172.935897, 85.555556)">
                            <mask id="mask-28" fill="white">
                                <use xlink:href="#path-27"></use>
                            </mask>
                            <g id="Clip-69"></g>
                            <path d="M2.69515077,2.17213333 L16.8256898,0.876883333 C14.4194687,2.48975833 14.1378653,3.13944583 14.1996807,5.21432083 L0.0714311111,6.51163333 C0.00732626781,4.43469583 0.288929687,3.78500833 2.69515077,2.17213333" id="Fill-68" fill="#A3A4A4" mask="url(#mask-28)"></path>
                        </g>
                        <g id="Group-73" transform="translate(174.162393, 83.111111)">
                            <mask id="mask-30" fill="white">
                                <use xlink:href="#path-29"></use>
                            </mask>
                            <g id="Clip-72"></g>
                            <path d="M0.556371483,1.70706963 L14.8227811,0.274299259 C17.1758603,0.26061037 17.5711221,2.11089185 15.8305832,3.2881363 L1.56648506,4.72090667 C3.30471254,3.5459437 2.91176218,1.69566222 0.556371483,1.70706963" id="Fill-71" fill="#A3A4A4" mask="url(#mask-30)"></path>
                        </g>
                        <polygon id="Fill-74" fill="#9F9FA0" points="187.291228 120.109564 174.162393 121 202.734413 120.668213 215.863248 119.777778"></polygon>
                        <g id="Group-77" transform="translate(142.273504, 57.444444)">
                            <mask id="mask-32" fill="white">
                                <use xlink:href="#path-31"></use>
                            </mask>
                            <g id="Clip-76"></g>
                            <path d="M0.828259779,1.99888333 L14.4096077,0.84755 C29.1594092,1.85221667 47.7116361,2.28121667 74.1921839,2.28121667 L60.6108359,3.43255 C34.1302882,3.43255 15.5780613,3.00355 0.828259779,1.99888333" id="Fill-75" fill="#A3A4A4" mask="url(#mask-32)"></path>
                        </g>
                        <g id="Group-80" transform="translate(155.764957, 22.000000)">
                            <mask id="mask-34" fill="white">
                                <use xlink:href="#path-33"></use>
                            </mask>
                            <g id="Clip-79"></g>
                            <path d="M0.808243535,1.86285 L14.0613761,0.711516667 C25.7169178,1.56768333 38.2206429,1.99668333 58.4696773,2.14518333 L45.2143974,3.29651667 C24.9675103,3.14801667 12.4637853,2.72085 0.808243535,1.86285" id="Fill-78" fill="#A3A4A4" mask="url(#mask-34)"></path>
                        </g>
                        <polygon id="Fill-81" fill="#A5A5A6" points="213.410256 72.1128224 227.778648 70.8888889 229.354701 119.778015 214.98631 121"></polygon>
                        <polygon id="Fill-82" fill="#A5A5A6" points="213.410256 35.4815422 225.025926 34.2222222 225.675214 59.8517911 214.059544 61.1111111"></polygon>
                        <polygon id="Fill-83" fill="#A5A5A6" points="213.410256 15.9330278 225.422208 14.6666667 225.675214 24.4003055 213.663263 25.6666667"></polygon>
                        <g id="Group-86" transform="translate(197.465812, 1.222222)">
                            <mask id="mask-36" fill="white">
                                <use xlink:href="#path-35"></use>
                            </mask>
                            <g id="Clip-85"></g>
                            <path d="M0.128687705,1.30337778 L12.9393412,0.27997037 C16.8892235,0.803081481 20.8183498,1.0736 24.5897298,1.0736 C25.3494024,1.0736 26.1028481,1.06382222 26.8479915,1.04100741 L14.0373379,2.06441481 C13.2921946,2.08722963 12.5387488,2.09700741 11.7790763,2.09700741 C8.00769625,2.09700741 4.07857002,1.82648889 0.128687705,1.30337778" id="Fill-84" fill="#A3A4A4" mask="url(#mask-36)"></path>
                        </g>
                        <g id="Group-89" transform="translate(213.410256, 4.888889)">
                            <mask id="mask-38" fill="white">
                                <use xlink:href="#path-37"></use>
                            </mask>
                            <g id="Clip-88"></g>
                            <path d="M1.74076538,1.52368333 L15.7674034,0.37235 C14.2651986,1.08001667 13.8970335,3.65035 14.1015697,9.79751667 L0.0749316742,10.94885 C-0.129604525,4.80351667 0.238560633,2.23135 1.74076538,1.52368333" id="Fill-87" fill="#A3A4A4" mask="url(#mask-38)"></path>
                        </g>
                        <g id="Group-92" transform="translate(213.410256, 1.222222)">
                            <mask id="mask-40" fill="white">
                                <use xlink:href="#path-39"></use>
                            </mask>
                            <g id="Clip-91"></g>
                            <path d="M0.437613675,1.59423951 L13.8952699,0.400264198 C14.0544418,0.392659259 14.2070724,0.38885679 14.3553421,0.38885679 C17.050362,0.38885679 17.8527628,1.68930123 15.1468406,3.37379506 L1.68918443,4.56777037 C4.39510655,2.88327654 3.59270579,1.5828321 0.89768585,1.5828321 C0.751596581,1.5828321 0.596785565,1.58663457 0.437613675,1.59423951" id="Fill-90" fill="#A3A4A4" mask="url(#mask-40)"></path>
                        </g>
                        <polygon id="Fill-93" fill="#9F9FA0" points="227.764248 120.027179 214.636752 121 243.212238 120.749049 256.337607 119.777778"></polygon>
                        <g id="Group-96" transform="translate(256.337607, 121.000000)">
                            <mask id="mask-42" fill="white">
                                <use xlink:href="#path-41"></use>
                            </mask>
                            <g id="Clip-95"></g>
                            <path d="M0.637504175,1.41699556 L14.9039138,0.188906667 C15.1581758,8.11672889 15.6250933,13.3009067 16.7137969,18.3266844 L2.44738731,19.5547733 C1.35868366,14.5289956 0.889454701,9.34481778 0.637504175,1.41699556" id="Fill-94" fill="#A3A4A4" mask="url(#mask-42)"></path>
                        </g>
                        <polygon id="Fill-97" fill="#A5A5A6" points="256.337607 91.6936307 267.801989 90.4444444 268.602564 122.195258 257.138182 123.444444"></polygon>
                        <g id="Group-100" transform="translate(255.111111, 85.555556)">
                            <mask id="mask-44" fill="white">
                                <use xlink:href="#path-43"></use>
                            </mask>
                            <g id="Clip-99"></g>
                            <path d="M2.92767255,2.20369722 L16.3853288,0.860475 C14.3967704,2.53308611 14.0195548,4.70405833 14.0740657,6.70391944 L0.616409497,8.04714167 C0.561898575,6.04941944 0.93911415,3.87630833 2.92767255,2.20369722" id="Fill-98" fill="#A3A4A4" mask="url(#mask-44)"></path>
                        </g>
                        <g id="Group-103" transform="translate(241.619658, 81.888889)">
                            <mask id="mask-46" fill="white">
                                <use xlink:href="#path-45"></use>
                            </mask>
                            <g id="Clip-102"></g>
                            <path d="M0.149112147,1.46808444 L13.6679395,0.0864844444 C19.1109541,0.759684444 23.5091728,0.937884444 28.1877559,0.937884444 C30.6738008,0.937884444 31.2870982,1.78708444 29.5720558,3.32928444 L16.0510381,4.71088444 C17.7682708,3.16868444 17.1527831,2.31948444 14.6689285,2.31948444 C9.99034537,2.31948444 5.58993639,2.14128444 0.149112147,1.46808444" id="Fill-101" fill="#A3A4A4" mask="url(#mask-46)"></path>
                        </g>
                        <polygon id="Fill-104" fill="#A5A5A6" points="257.564103 24.4395982 269.468383 23.2222222 269.82906 36.6734514 257.92478 37.8888889"></polygon>
                        <g id="Group-107" transform="translate(213.410256, 22.000000)">
                            <mask id="mask-48" fill="white">
                                <use xlink:href="#path-47"></use>
                            </mask>
                            <g id="Clip-106"></g>
                            <path d="M0.32734748,3.29706667 L13.3789537,2.14573333 C33.7324388,1.99723333 46.7375228,1.56823333 58.1629649,0.712066667 L45.1113587,1.8634 C33.6859166,2.7214 20.6808326,3.14856667 0.32734748,3.29706667" id="Fill-105" fill="#A3A4A4" mask="url(#mask-48)"></path>
                        </g>
                        <g id="Group-112" transform="translate(142.273504, 1.222222)">
                            <path d="M56.1639221,0.681627725 C60.2649099,1.31223734 64.3443476,1.63834699 68.2600044,1.63834699 C69.0487388,1.63834699 69.8310081,1.62655989 70.6046574,1.59905667 C70.7619733,1.59119861 70.9149791,1.58726957 71.0615199,1.58726957 C73.7229597,1.58726957 74.5181592,2.93099848 71.8416343,4.6715596 C70.4193264,5.42986275 70.0680594,8.18607862 70.2620105,14.771136 L70.5443171,24.2538545 C91.2863074,24.0927642 104.539631,23.635032 116.183161,22.7156385 L116.588303,36.3474146 C104.884433,35.2708599 91.6030941,34.8111632 70.8503288,34.6520374 L71.5959629,59.7605156 C97.0983747,59.7605156 115.665958,59.1416931 129.770511,58.2242641 L130.186429,72.2960918 C116.02369,71.2372177 97.4194714,70.6183952 71.9170597,70.6183952 L73.3760028,119.898278 L102.326434,119.580026 L101.7101,98.7816957 C101.479514,90.9766739 101.179967,85.3090454 100.520534,82.7119553 C105.873583,83.3130972 110.203002,83.472223 114.806108,83.472223 C117.249892,83.472223 117.85545,84.2305261 116.165921,85.6076518 C114.20055,87.1458678 113.827733,89.1398515 113.881608,90.9766739 L114.810418,122.334277 C115.045314,130.298425 115.482782,135.506357 116.497792,140.555163 L102.947077,140.555163 L102.64322,130.298425 L45.332832,131.213889 C32.3682799,131.373015 24.7524676,131.832712 18.7270541,132.752105 C19.608454,128.760209 19.9532559,125.866477 19.6817244,116.684329 L19.0977161,96.9429088 C18.9210052,90.9766739 18.6193035,85.3090454 17.806864,82.554794 C21.2850533,83.6156326 25.9420342,84.0380036 29.7370103,84.0380036 C30.8662365,84.0380036 31.9200374,84.0006778 32.8445375,83.9319197 C35.0383397,83.9220971 35.4068468,85.5153196 33.7841228,86.5270453 C31.5192052,88.0632967 31.2541387,88.6801547 31.314479,90.6584223 L32.1958789,120.497455 L61.1441548,120.037758 L59.6809017,70.6183952 C33.5966367,70.6183952 15.4600559,71.2372177 1.22835683,72.2960918 L0.810284503,58.2242641 C15.2574848,59.3008189 33.4242358,59.7605156 59.3598049,59.7605156 L58.6163258,34.6520374 C38.3053379,34.8111632 25.6338675,35.2708599 14.1433436,36.3474146 L13.7403564,22.7156385 C25.4399164,23.635032 37.9863961,24.0927642 58.3081591,24.2538545 C58.0366276,15.071707 57.1185925,3.75413066 56.1639221,0.681627725" id="Fill-108" fill="#FDFDFD"></path>
                            <polygon id="Fill-110" fill="#A5A5A6" points="129.769865 58.2232819 143.070599 56.9895659 143.486516 71.0613935 130.185782 72.2951095"></polygon>
                        </g>
                        <g id="Group-115" transform="translate(213.410256, 57.444444)">
                            <mask id="mask-50" fill="white">
                                <use xlink:href="#path-49"></use>
                            </mask>
                            <g id="Clip-114"></g>
                            <path d="M0.47376644,3.4331 L13.6098243,2.28176667 C38.7964912,2.28176667 57.1363178,1.70426667 71.0641147,0.8481 L57.9280569,1.99943333 C43.9981317,2.8556 25.6604334,3.4331 0.47376644,3.4331" id="Fill-113" fill="#A3A4A4" mask="url(#mask-50)"></path>
                        </g>
                        <g id="Group-118" transform="translate(290.679487, 44.000000)">
                            <mask id="mask-52" fill="white">
                                <use xlink:href="#path-51"></use>
                            </mask>
                            <g id="Clip-117"></g>
                            <path d="M4.40862526,1.72838519 L17.8662815,0.704977778 C16.4184714,0.814162963 15.0753223,0.936385185 13.8302929,1.06512593 L0.372636657,2.08853333 C1.6176661,1.95979259 2.96081519,1.83757037 4.40862526,1.72838519" id="Fill-116" fill="#A3A4A4" mask="url(#mask-52)"></path>
                        </g>
                        <g id="Group-121" transform="translate(294.358974, 121.000000)">
                            <mask id="mask-54" fill="white">
                                <use xlink:href="#path-53"></use>
                            </mask>
                            <g id="Clip-120"></g>
                            <path d="M0.149305413,1.90501667 L14.0275134,0.753683333 C18.7607648,1.51268333 22.2595483,1.89401667 24.8251729,1.89401667 C25.423294,1.89401667 25.9696979,1.87385 26.4688816,1.83168333 L12.5906736,2.98301667 C12.0914899,3.02518333 11.5428375,3.04535 10.946965,3.04535 C8.38134031,3.04535 4.88255684,2.66401667 0.149305413,1.90501667" id="Fill-119" fill="#A3A4A4" mask="url(#mask-54)"></path>
                        </g>
                        <g id="Group-124" transform="translate(293.132479, 85.555556)">
                            <mask id="mask-56" fill="white">
                                <use xlink:href="#path-55"></use>
                            </mask>
                            <g id="Clip-123"></g>
                            <path d="M18.7270081,1.42456548 L31.848223,0.190994048 C25.1196674,3.40456548 18.9651119,6.6181369 13.363297,9.67260119 L0.242082222,10.9061726 C5.84389704,7.84974405 11.9984526,4.6381369 18.7270081,1.42456548" id="Fill-122" fill="#A3A4A4" mask="url(#mask-56)"></path>
                        </g>
                        <g id="Group-127" transform="translate(290.679487, 31.777778)">
                            <mask id="mask-58" fill="white">
                                <use xlink:href="#path-57"></use>
                            </mask>
                            <g id="Clip-126"></g>
                            <path d="M0.113660546,1.99008333 L13.2999931,0.83875 C18.3335315,1.54641667 24.6211816,1.82691667 32.7675663,1.97541667 L19.5812337,3.12675 C11.4348491,2.97825 5.14506253,2.69775 0.113660546,1.99008333" id="Fill-125" fill="#A3A4A4" mask="url(#mask-58)"></path>
                        </g>
                        <g id="Group-130" transform="translate(300.491453, 121.000000)">
                            <mask id="mask-60" fill="white">
                                <use xlink:href="#path-59"></use>
                            </mask>
                            <g id="Clip-129"></g>
                            <path d="M22.8805322,1.46127667 L36.3127004,0.19481 C36.6609096,12.1395267 34.1102775,14.4949933 13.5332926,17.0158267 L0.101124366,18.2822933 C20.6781092,15.7634767 23.2287413,13.4059933 22.8805322,1.46127667" id="Fill-128" fill="#A3A4A4" mask="url(#mask-60)"></path>
                        </g>
                        <polygon id="Fill-131" fill="#A5A5A6" points="322.568376 81.907003 337.169134 80.6666667 338.512821 122.204108 323.909697 123.444444"></polygon>
                        <polygon id="Fill-132" fill="#A5A5A6" points="321.34188 46.4677725 332.980767 45.2222222 333.606838 69.6433386 321.969837 70.8888889"></polygon>
                        <polygon id="Fill-133" fill="#A5A5A6" points="320.115385 15.8716204 331.857174 14.6666667 332.380342 34.2394907 320.638552 35.4444444"></polygon>
                        <g id="Group-136" transform="translate(307.850427, 1.222222)">
                            <mask id="mask-62" fill="white">
                                <use xlink:href="#path-61"></use>
                            </mask>
                            <g id="Clip-135"></g>
                            <path d="M0.071954416,2.12034167 L13.4926391,0.777119444 C17.3087929,1.80806389 20.7639886,2.24011944 23.7951672,2.24011944 C24.7258304,2.24011944 25.615179,2.19948056 26.4632132,2.12248056 L13.0425286,3.46570278 C12.1944944,3.54270278 11.3051457,3.58334167 10.3744826,3.58334167 C7.34330397,3.58334167 3.88810826,3.14914722 0.071954416,2.12034167" id="Fill-134" fill="#A3A4A4" mask="url(#mask-62)"></path>
                        </g>
                        <g id="Group-139" transform="translate(320.115385, 2.444444)">
                            <mask id="mask-64" fill="white">
                                <use xlink:href="#path-63"></use>
                            </mask>
                            <g id="Clip-138"></g>
                            <path d="M0.288515083,1.95380952 L13.6472179,0.778979592 C14.2056342,0.730340136 14.7034472,0.706020408 15.1384925,0.706020408 C18.3483039,0.706020408 18.300687,2.02676871 15.8397594,4.57098639 C13.883138,6.62132653 13.363681,8.65670068 13.4351063,10.9932653 L0.0764034691,12.1680952 C0.00497812971,9.83153061 0.524435143,7.79615646 2.48105656,5.74581633 C4.94198416,3.20159864 4.98960106,1.87897959 1.77978959,1.87897959 C1.34474434,1.87897959 0.846931373,1.90517007 0.288515083,1.95380952" id="Fill-137" fill="#A3A4A4" mask="url(#mask-64)"></path>
                        </g>
                        <g id="Group-142" transform="translate(322.568376, 72.111111)">
                            <mask id="mask-66" fill="white">
                                <use xlink:href="#path-65"></use>
                            </mask>
                            <g id="Clip-141"></g>
                            <path d="M18.5978733,1.41034667 L31.7190881,0.182257778 C25.3987104,2.78314667 19.2250215,5.36643556 13.1852659,7.94972444 L0.0640511111,9.17781333 C6.10593259,6.59452444 12.2774956,4.01123556 18.5978733,1.41034667" id="Fill-140" fill="#A3A4A4" mask="url(#mask-66)"></path>
                        </g>
                        <g id="Group-145" transform="translate(339.739316, 59.888889)">
                            <mask id="mask-68" fill="white">
                                <use xlink:href="#path-67"></use>
                            </mask>
                            <g id="Clip-144"></g>
                            <path d="M0.252187233,1.87741961 L14.445809,0.658360784 C13.9743747,4.7406549 14.4159132,9.13741961 15.7612257,12.9052431 L1.5676039,14.1262431 C0.2222914,10.3564784 -0.221546741,5.95971373 0.252187233,1.87741961" id="Fill-143" fill="#A3A4A4" mask="url(#mask-68)"></path>
                        </g>
                        <g id="Group-148" transform="translate(320.115385, 33.000000)">
                            <mask id="mask-70" fill="white">
                                <use xlink:href="#path-69"></use>
                            </mask>
                            <g id="Clip-147"></g>
                            <path d="M0.516060948,1.96468148 L14.1232467,0.941274074 C20.6424379,0.841866667 26.0725251,0.677274074 30.6075188,0.336681481 L17.0003331,1.36008889 C12.4653394,1.70068148 7.03525217,1.86527407 0.516060948,1.96468148" id="Fill-146" fill="#A3A4A4" mask="url(#mask-70)"></path>
                        </g>
                        <polygon id="Fill-149" fill="#A5A5A6" points="340.965812 34.2576006 352.881335 33 353.230769 46.4090661 341.315246 47.6666667"></polygon>
                        <path d="M320.566528,15.518142 L321.169314,35.3894273 C329.823133,35.2316414 336.543652,34.9336014 341.797757,34.1816833 L342.192308,47.2253189 C336.898748,46.611707 330.15631,46.157829 321.495915,46.157829 L322.225834,70.1432359 C328.306304,67.7082681 334.378006,64.9772082 340.445323,62.0883624 C339.995974,66.1849523 340.416828,70.5971139 341.699119,74.3800799 C335.182451,76.9708857 328.81922,79.5441597 322.589698,82.1174337 L323.832533,123.08528 C324.183246,134.623132 321.616472,136.900313 300.889392,139.333333 C301.053788,135.236743 299.425169,130.070716 295.427052,123.698892 C300.041107,124.505353 303.451781,124.910532 305.952796,124.910532 C311.437056,124.910532 312.550566,122.956714 312.430009,118.98869 L311.458975,86.9854213 C304.521453,90.1703592 298.175757,93.3572451 292.397777,96.386345 C291.950619,91.0820112 290.146644,85.1640654 288.226496,79.8421997 C295.815027,78.6325077 303.51754,76.6553139 311.071,74.2398258 L310.213947,46.0175748 C301.864809,46.157829 295.282383,46.611707 290.313232,47.2253189 L289.918681,34.1816833 C295.080724,34.9336014 301.531633,35.2316414 309.891731,35.3894273 C309.352511,17.63559 308.848362,10.5118482 307.607719,3.66666667 C311.454591,4.60364228 314.939792,4.99908105 317.99537,4.99908105 C318.931333,4.99908105 319.827841,4.96206954 320.682701,4.8899945 C321.289871,4.83350324 321.824707,4.80428363 322.291593,4.80428363 C325.542255,4.80428363 325.494032,6.1834494 323.001784,8.8307464 C321.020261,10.9657262 320.492001,13.0851222 320.566528,15.518142" id="Fill-150" fill="#FDFDFD"></path>
                        <polygon id="Fill-152" fill="#A5A5A6" points="359.363248 127.117479 359.720124 140.555556 371.628205 139.325006 371.2694 125.888889"></polygon>
                        <polygon id="Fill-153" fill="#A5A5A6" points="358.136752 83.0930325 369.542405 81.8888889 370.401709 114.906967 358.996057 116.111111"></polygon>
                        <polygon id="Fill-154" fill="#A5A5A6" points="355.683761 39.1039935 367.096291 37.8888889 367.948718 70.8960065 356.534338 72.1111111"></polygon>
                        <g id="Group-157" transform="translate(342.192308, 25.666667)">
                            <mask id="mask-72" fill="white">
                                <use xlink:href="#path-71"></use>
                            </mask>
                            <g id="Clip-156"></g>
                            <path d="M0.601327858,1.06235556 L14.3218289,0.0389481481 C21.0286908,0.552281481 28.3090928,0.799985185 34.8670122,0.931985185 L21.1465111,1.95539259 C14.5885917,1.82502222 7.30818977,1.57568889 0.601327858,1.06235556" id="Fill-155" fill="#A3A4A4" mask="url(#mask-72)"></path>
                        </g>
                        <polygon id="Fill-158" fill="#9F9FA0" points="388.749056 26.8888889 375.307692 28.1111111 388.849235 28.1111111 402.290598 26.8888889"></polygon>
                        <g id="Group-161" transform="translate(369.175214, 0.000000)">
                            <mask id="mask-74" fill="white">
                                <use xlink:href="#path-73"></use>
                            </mask>
                            <g id="Clip-160"></g>
                            <path d="M0.735782963,1.83611728 L13.8591237,0.522744444 C19.7564422,3.30425062 26.7890052,5.57964815 31.3533681,6.38691235 L18.2321533,7.70028519 C13.6677904,6.89092963 6.63522741,4.61762346 0.735782963,1.83611728" id="Fill-159" fill="#A3A4A4" mask="url(#mask-74)"></path>
                        </g>
                        <polygon id="Fill-162" fill="#9F9FA0" points="372.70554 114.888889 359.363248 116.111111 399.986767 116.111111 413.32906 114.888889"></polygon>
                        <g id="Group-165" transform="translate(374.081197, 4.888889)">
                            <mask id="mask-76" fill="white">
                                <use xlink:href="#path-75"></use>
                            </mask>
                            <g id="Clip-164"></g>
                            <path d="M12.4551262,1.38934979 L25.2816935,0.121024375 C27.3744274,0.430027224 27.8337066,2.00937512 24.1220654,3.42513327 C21.5035504,4.36829883 18.8351589,8.14500032 13.3965447,22.4661716 L0.569977297,23.734497 C6.00651331,9.41332574 8.67698302,5.63864387 11.2954981,4.69345869 C15.0092174,3.27770054 14.54786,1.69835264 12.4551262,1.38934979" id="Fill-163" fill="#A3A4A4" mask="url(#mask-76)"></path>
                        </g>
                        <polygon id="Fill-166" fill="#9F9FA0" points="371.479045 70.8888889 358.136752 72.1111111 398.760272 72.1111111 412.102564 70.8888889"></polygon>
                        <g id="Group-169" transform="translate(412.102564, 114.888889)">
                            <mask id="mask-78" fill="white">
                                <use xlink:href="#path-77"></use>
                            </mask>
                            <g id="Clip-168"></g>
                            <path d="M0.024228401,1.34295897 L14.0075743,0.103061538 C14.3451502,11.0153436 14.6963198,17.1733692 15.7860783,23.6334718 L1.80273238,24.8713949 C0.71070828,18.4132667 0.361804315,12.255241 0.024228401,1.34295897" id="Fill-167" fill="#A3A4A4" mask="url(#mask-78)"></path>
                        </g>
                        <polygon id="Fill-170" fill="#A5A5A6" points="408.423077 51.3396368 422.35218 50.1111111 424.367521 114.882585 410.440675 116.111111"></polygon>
                        <g id="Group-173" transform="translate(408.423077, 25.666667)">
                            <mask id="mask-80" fill="white">
                                <use xlink:href="#path-79"></use>
                            </mask>
                            <g id="Clip-172"></g>
                            <path d="M0.311165573,1.28708462 L14.3400762,0.0471871795 C13.9332764,6.20521282 13.9923647,13.125341 14.3150773,23.5775974 L0.288439329,24.8174949 C-0.0342733409,14.3652385 -0.0933615762,7.44511026 0.311165573,1.28708462" id="Fill-171" fill="#A3A4A4" mask="url(#mask-80)"></path>
                        </g>
                        <g id="Group-176" transform="translate(386.346154, 25.666667)">
                            <mask id="mask-82" fill="white">
                                <use xlink:href="#path-81"></use>
                            </mask>
                            <g id="Clip-175"></g>
                            <path d="M0.163823756,1.95588148 L13.5384298,0.932474074 C20.9278347,0.932474074 28.5859452,0.551140741 35.2407435,0.039437037 L21.8639704,1.06284444 C15.2113391,1.57617778 7.55322861,1.95588148 0.163823756,1.95588148" id="Fill-174" fill="#A3A4A4" mask="url(#mask-82)"></path>
                        </g>
                        <g id="Group-181" transform="translate(342.192308, 1.222222)" fill="#FDFDFD">
                            <path d="M14.0043628,38.6141324 L14.9937361,72.1268098 L55.4139337,72.1268098 L54.4245605,38.6141324 L14.0043628,38.6141324 M16.2971277,116.196796 L56.7151746,116.196796 L55.7171981,82.3658669 L15.2991513,82.3658669 L16.2971277,116.196796 M70.4567082,138.690503 L57.3819261,138.690503 L57.0334946,126.89555 L16.613297,126.89555 L17.0111971,140.3682 L3.78800894,140.3682 C4.42034748,132.565143 4.54939616,127.355246 4.2353777,116.795973 L2.26093289,49.9317087 C1.96627173,39.9912581 1.62644354,32.9465039 0.581149226,26.8191787 C7.07014706,27.4380012 14.1140542,27.7385722 20.4589477,27.8957334 C23.7754988,18.8746762 25.7886582,8.91654495 26.554347,0.653790905 C32.5228485,3.26659711 39.6377325,5.40202593 44.2555244,6.16032908 C46.4213915,6.46090002 46.8988716,7.999116 43.0575225,9.37427716 C40.3453494,10.2936706 37.5837076,13.9653509 31.9571851,27.8957334 L45.3287793,27.8957334 C52.6651968,27.8957334 60.2661641,27.4380012 66.8670041,26.8191787 C66.4841597,32.9465039 66.5400808,39.8321323 66.845496,50.2322797 L68.7683213,115.277402 C69.0887922,126.137247 69.4200172,132.262607 70.4567082,138.690503" id="Fill-177"></path>
                            <path d="M131.072379,111.905507 L141.798475,109.909559 C143.304043,116.956278 146.087193,128.733551 147.53684,133.941483 L134.956744,136.076911 C134.780378,130.108712 132.844648,118.492529 131.072379,111.905507" id="Fill-179"></path>
                        </g>
                        <g id="Group-184" transform="translate(484.465812, 107.555556)">
                            <mask id="mask-84" fill="white">
                                <use xlink:href="#path-83"></use>
                            </mask>
                            <g id="Clip-183"></g>
                            <path d="M0.753143499,1.88105704 L14.4263325,0.634693016 C15.9748677,7.75166974 18.8459715,19.649683 20.3369074,24.9110062 L6.66371839,26.1593549 C5.17056716,20.8980316 2.30167868,8.99803376 0.753143499,1.88105704" id="Fill-182" fill="#A3A4A4" mask="url(#mask-84)"></path>
                        </g>
                        <g id="Group-189" transform="translate(477.106838, 107.555556)">
                            <polygon id="Fill-185" fill="#9F9FA0" points="13.1013849 25.4735334 26.5399252 24.2579035 13.8046656 26.3606147 0.36394805 27.5743119"></polygon>
                            <path d="M25.9400681,2.44034313 L37.9829336,0.789869514 C39.7792388,7.40722507 42.8536424,17.3429216 45.0723515,23.5099723 L31.5772004,24.8647522 C30.5015946,18.2473966 28.3286097,9.21424243 25.9400681,2.44034313" id="Fill-187" fill="#FDFDFD"></path>
                        </g>
                        <g id="Group-192" transform="translate(515.128205, 107.555556)">
                            <mask id="mask-86" fill="white">
                                <use xlink:href="#path-85"></use>
                            </mask>
                            <g id="Clip-191"></g>
                            <path d="M0.0526009948,1.87567069 L13.6364227,0.644935057 C15.4521475,7.35518793 18.5597878,17.4303661 20.8046838,23.6820328 L7.2186612,24.9147282 C4.97376519,18.6611017 1.86832571,8.58592356 0.0526009948,1.87567069" id="Fill-190" fill="#A3A4A4" mask="url(#mask-86)"></path>
                        </g>
                        <g id="Group-197" transform="translate(507.769231, 106.333333)">
                            <polygon id="Fill-193" fill="#9F9FA0" points="13.5628996 25.141684 26.8953486 23.9404688 13.5067448 25.279184 0.176455707 26.4784896"></polygon>
                            <path d="M37.2237309,0.595833333 C41.0228201,7.15381944 46.7981268,16.2154514 52.0637206,23.3539931 L38.2647547,30.3569444 C35.478612,23.6652778 30.2194976,12.3539931 26.2260264,4.92135417 L37.2237309,0.595833333 Z" id="Fill-195" fill="#FDFDFD"></path>
                        </g>
                        <g id="Group-200" transform="translate(545.790598, 105.111111)">
                            <mask id="mask-88" fill="white">
                                <use xlink:href="#path-87"></use>
                            </mask>
                            <g id="Clip-199"></g>
                            <path d="M0.493682051,1.68616092 L13.4707077,0.455425287 C17.1712205,7.18527586 22.7913744,16.4843851 27.9195282,23.8119655 L14.9404,25.0407414 C9.81434872,17.7151207 4.19209231,8.41601149 0.493682051,1.68616092" id="Fill-198" fill="#A3A4A4" mask="url(#mask-88)"></path>
                        </g>
                        <g id="Group-203" transform="translate(547.017094, 128.333333)">
                            <mask id="mask-90" fill="white">
                                <use xlink:href="#path-89"></use>
                            </mask>
                            <g id="Clip-202"></g>
                            <polygon id="Fill-201" fill="#A0A0A1" mask="url(#mask-90)" points="13.7141145 1.45863667 26.6932427 0.276601111 13.2578581 7.17871 0.280832479 8.36074556"></polygon>
                        </g>
                        <polygon id="Fill-204" fill="#A5A5A6" points="453.803419 90.4867289 465.81541 89.2222222 466.068376 98.9597291 454.058331 100.222222"></polygon>
                        <polygon id="Fill-205" fill="#A5A5A6" points="453.803419 57.4748164 465.415524 56.2222222 466.068376 81.8585169 454.45627 83.1111111"></polygon>
                        <polygon id="Fill-206" fill="#A5A5A6" points="451.350427 21.9879787 462.969662 20.7777778 463.615385 45.2342435 451.99615 46.4444444"></polygon>
                        <polygon id="Fill-207" fill="#9F9FA0" points="467.017031 80.6666667 453.803419 81.8888889 473.705191 81.8888889 486.918803 80.6666667"></polygon>
                        <polygon id="Fill-208" fill="#9F9FA0" points="464.562753 46.4444444 451.350427 47.6666667 471.253486 47.6666667 484.465812 46.4444444"></polygon>
                        <g id="Group-211" transform="translate(484.465812, 81.888889)">
                            <mask id="mask-92" fill="white">
                                <use xlink:href="#path-91"></use>
                            </mask>
                            <g id="Clip-210"></g>
                            <path d="M0.155026505,1.24807222 L14.5063552,0.000794444444 C14.6621457,4.96408611 14.9388483,9.14087778 15.8945184,14.3881833 L1.5431897,15.6354611 C0.589844792,10.3881556 0.310817014,6.21136389 0.155026505,1.24807222" id="Fill-209" fill="#A3A4A4" mask="url(#mask-92)"></path>
                        </g>
                        <g id="Group-214" transform="translate(439.085470, 9.777778)">
                            <mask id="mask-94" fill="white">
                                <use xlink:href="#path-93"></use>
                            </mask>
                            <g id="Clip-213"></g>
                            <path d="M0.235671154,2.38330074 L13.4830515,0.95053037 C18.0955953,2.01598222 24.8716776,2.73464889 35.2042908,2.73464889 C41.8945184,2.73464889 46.7216989,2.51334519 50.2288635,2.13461926 L36.9814831,3.56738963 C33.4743186,3.94611556 28.647138,4.16741926 21.9547641,4.16741926 C11.6242972,4.16741926 4.84821496,3.44875259 0.235671154,2.38330074" id="Fill-212" fill="#A3A4A4" mask="url(#mask-94)"></path>
                        </g>
                        <polygon id="Fill-215" fill="#A5A5A6" points="482.012821 22.0033291 496.037206 20.7777778 497.957265 81.8855598 483.93288 83.1111111"></polygon>
                        <g id="Group-218" transform="translate(482.012821, 9.777778)">
                            <mask id="mask-96" fill="white">
                                <use xlink:href="#path-95"></use>
                            </mask>
                            <g id="Clip-217"></g>
                            <path d="M1.22463299,2.12180833 L15.5759617,0.826558333 C14.8923436,3.71818333 14.724927,8.22268333 14.8667661,12.8756833 L0.515437384,14.1709333 C0.373598264,9.51793333 0.541014931,5.01343333 1.22463299,2.12180833" id="Fill-216" fill="#A3A4A4" mask="url(#mask-96)"></path>
                        </g>
                        <path d="M451.224207,22.3155491 L451.980948,47.2038738 L472.490163,47.2038738 L471.733422,22.3155491 L451.224207,22.3155491 M452.269965,56.6857941 L453.033325,81.889856 L473.542539,81.889856 L472.77918,56.6857941 L452.269965,56.6857941 M442.397038,85.857162 L440.473196,22.4567483 C440.340821,18.191355 439.771611,13.9083118 439.08547,11 C443.826682,11.9158339 450.791784,12.5335805 461.410421,12.5335805 C473.80067,12.5335805 479.978144,11.9158339 483.183812,11 C482.535177,13.7494627 482.376328,18.0325059 482.513115,22.4567483 L484.375182,83.8646841 C484.525206,88.7654739 484.787749,92.889668 485.692308,98.0708951 L474.034531,98.0708951 L473.811701,90.7383409 L453.30028,90.7383409 L453.589297,100.222222 L441.949171,100.222222 C442.518381,94.864496 442.553681,91.0560391 442.397038,85.857162" id="Fill-219" fill="#FDFDFD"></path>
                        <g id="Group-223" transform="translate(496.730769, 97.777778)">
                            <mask id="mask-98" fill="white">
                                <use xlink:href="#path-97"></use>
                            </mask>
                            <g id="Clip-222"></g>
                            <path d="M3.6995472,1.77287407 L17.1593839,0.749466667 C15.927437,0.842355556 14.789249,0.945022222 13.7339176,1.05420741 L0.274080912,2.07761481 C1.33159278,1.96842963 2.47196125,1.86576296 3.6995472,1.77287407" id="Fill-221" fill="#A3A4A4" mask="url(#mask-98)"></path>
                        </g>
                        <g id="Group-226" transform="translate(494.277778, 61.111111)">
                            <mask id="mask-100" fill="white">
                                <use xlink:href="#path-99"></use>
                            </mask>
                            <g id="Clip-225"></g>
                            <path d="M1.64696474,1.36158272 L15.8405865,0.167607407 C15.3898494,0.458496296 14.7781346,0.749385185 14.3273974,1.05548395 L0.133775641,2.25136049 C0.584512821,1.94336049 1.19622756,1.6524716 1.64696474,1.36158272" id="Fill-224" fill="#A3A4A4" mask="url(#mask-100)"></path>
                        </g>
                        <g id="Group-229" transform="translate(491.824786, 20.777778)">
                            <mask id="mask-102" fill="white">
                                <use xlink:href="#path-101"></use>
                            </mask>
                            <g id="Clip-228"></g>
                            <path d="M5.80638067,1.18327407 L20.1074571,0.159866667 C17.7050245,0.332607407 15.8215359,0.536311111 14.7604809,0.740014815 L0.46172113,1.76179259 C1.52277621,1.55971852 3.40626481,1.35438519 5.80638067,1.18327407" id="Fill-227" fill="#A3A4A4" mask="url(#mask-102)"></path>
                        </g>
                        <polygon id="Fill-230" fill="#A5A5A6" points="507.769231 72.099799 519.576954 70.8888889 520.034188 88.0113121 508.226464 89.2222222"></polygon>
                        <g id="Group-233" transform="translate(497.957265, 19.555556)">
                            <mask id="mask-104" fill="white">
                                <use xlink:href="#path-103"></use>
                            </mask>
                            <g id="Clip-232"></g>
                            <path d="M21.5564758,1.77873853 L34.9310819,0.567277541 C33.8909311,14.2463697 29.1214062,28.9671641 13.9590408,39.9416889 L0.584434747,41.1531499 C15.7468001,30.1786251 20.518492,15.4578307 21.5564758,1.77873853" id="Fill-231" fill="#A3A4A4" mask="url(#mask-104)"></path>
                        </g>
                        <g id="Group-236" transform="translate(521.260684, 44.000000)">
                            <mask id="mask-106" fill="white">
                                <use xlink:href="#path-105"></use>
                            </mask>
                            <g id="Clip-235"></g>
                            <path d="M0.0273870921,0.8481 L12.9306796,0.0805444444 C15.4206053,0.262655556 17.5634885,0.350655556 19.3885978,0.350655556 C20.3231039,0.350655556 21.1739853,0.327433333 21.9475138,0.282211111 L9.04213068,1.04976667 C8.27069274,1.09498889 7.41981133,1.11821111 6.48530522,1.11821111 C4.66019595,1.11821111 2.51731279,1.02898889 0.0273870921,0.8481" id="Fill-234" fill="#A3A4A4" mask="url(#mask-106)"></path>
                        </g>
                        <polygon id="Fill-237" fill="#9F9FA0" points="520.747952 89.2222222 507.769231 90.4444444 537.715758 90.4444444 550.696581 89.2222222"></polygon>
                        <g id="Group-240" transform="translate(497.957265, 59.888889)">
                            <mask id="mask-108" fill="white">
                                <use xlink:href="#path-107"></use>
                            </mask>
                            <g id="Clip-239"></g>
                            <path d="M0.567692308,1.28985185 L13.5447179,0.266444444 C19.4739487,1.02748148 27.0726154,1.27681481 38.0395897,1.27681481 C46.7000513,1.27681481 53.2201026,1.08940741 58.4596923,0.677111111 L45.4826667,1.70051852 C40.2430769,2.11444444 33.7251282,2.30022222 25.0604615,2.30022222 C14.0976923,2.30022222 6.49692308,2.05088889 0.567692308,1.28985185" id="Fill-238" fill="#A3A4A4" mask="url(#mask-108)"></path>
                        </g>
                        <g id="Group-243" transform="translate(548.243590, 79.444444)">
                            <mask id="mask-110" fill="white">
                                <use xlink:href="#path-109"></use>
                            </mask>
                            <g id="Clip-242"></g>
                            <path d="M0.653453337,1.892748 L14.9198629,0.695361333 C15.1556332,7.97692133 15.8698782,15.552108 16.7944673,20.4522413 L2.53036918,21.6515347 C1.60346862,16.7494947 0.891535026,9.17621467 0.653453337,1.892748" id="Fill-241" fill="#A3A4A4" mask="url(#mask-110)"></path>
                        </g>
                        <g id="Group-246" transform="translate(548.243590, 59.888889)">
                            <mask id="mask-112" fill="white">
                                <use xlink:href="#path-111"></use>
                            </mask>
                            <g id="Clip-245"></g>
                            <path d="M1.21997778,1.20643333 L15.2784222,0.0202111111 C14.8251444,5.01065556 14.4607,12.2262111 14.7021444,19.5777667 L0.6437,20.7639889 C0.404533333,13.4124333 0.7667,6.19876667 1.21997778,1.20643333" id="Fill-244" fill="#A3A4A4" mask="url(#mask-112)"></path>
                        </g>
                        <g id="Group-249" transform="translate(491.824786, 7.333333)">
                            <mask id="mask-114" fill="white">
                                <use xlink:href="#path-113"></use>
                            </mask>
                            <g id="Clip-248"></g>
                            <path d="M0.0400655271,2.18389926 L13.0550357,0.751128889 C16.1653858,1.63178074 31.4155906,2.53524741 41.1430789,2.53524741 C50.9570243,2.53524741 62.3145469,1.94662519 68.5985085,1.25305481 L55.5835383,2.68582519 C49.2995767,3.37711407 37.9420541,3.96801778 28.1281087,3.96801778 C18.4006205,3.96801778 3.15252437,3.06683259 0.0400655271,2.18389926" id="Fill-247" fill="#A3A4A4" mask="url(#mask-114)"></path>
                        </g>
                        <g id="Group-252" transform="translate(527.393162, 7.333333)">
                            <mask id="mask-116" fill="white">
                                <use xlink:href="#path-115"></use>
                            </mask>
                            <g id="Clip-251"></g>
                            <path d="M22.9608105,1.78310246 L36.3238426,0.576658739 C35.8713355,9.26190089 34.5116492,26.6131743 33.1930998,35.4367348 C31.9416687,44.166162 29.1681684,47.0132155 13.544766,48.4232947 L0.18173396,49.6297384 C15.8051363,48.2196592 18.5786367,45.3726057 19.8300677,36.6431786 C21.1486171,27.819618 22.5083034,10.4683446 22.9608105,1.78310246" id="Fill-250" fill="#A3A4A4" mask="url(#mask-116)"></path>
                        </g>
                        <g id="Group-259" transform="translate(434.179487, 8.555556)">
                            <path d="M104.366957,81.1882108 L103.851719,63.8552755 L73.2808791,63.8552755 L73.7939712,81.1882108 L104.366957,81.1882108 M115.296462,72.2055342 C115.515438,79.6618194 116.178808,87.4147945 117.03754,92.4331478 C110.983483,91.5216071 102.507804,91.0648609 89.8694238,91.0648609 C77.2331906,91.0648609 68.5020387,91.5216071 62.4952122,92.2750433 C63.0641218,87.4147945 63.26163,79.5037149 63.0340662,71.9088443 C62.8387048,65.3640997 62.3664025,58.8388741 61.6364808,53.8205209 C61.2135555,54.1191627 60.6446459,54.4178045 60.2238675,54.7340134 C58.2616662,51.2244844 55.1509115,47.890627 50.6511588,46.3661876 C64.715033,41.5059388 73.1263075,25.2250814 74.0430033,12.6118575 C66.5892144,12.6118575 59.5712316,13.2267083 57.1539026,13.82204 L56.7653266,0.754021725 C59.9340457,1.50745788 75.4577633,2.27846119 85.3610837,2.27846119 C97.7160824,2.27846119 112.484116,1.50745788 116.900143,0.754021725 C116.451456,9.57664196 115.103247,27.2082191 113.795829,36.1733285 C112.496997,45.452695 109.547255,48.1892688 92.0828041,49.5575557 C91.9819032,46.2080831 89.9445628,40.5943982 86.8080462,36.4895375 C89.3670659,36.7784197 91.5654184,36.920909 93.4395998,36.920909 C99.3841682,36.920909 102.069851,35.4940648 102.63232,32.8394711 C103.780873,27.9616552 104.650339,18.2431096 104.761974,12.4537531 L84.5216737,12.4537531 C83.491196,26.2947265 78.7660262,41.1897299 63.7446665,52.2941295 C69.7987231,53.2076221 77.5595086,53.5043119 88.7552198,53.5043119 C101.391453,53.5043119 109.560136,53.0495176 115.83961,51.9954877 C115.412391,57.1543783 115.068898,64.6106635 115.296462,72.2055342" id="Fill-253" fill="#FDFDFD"></path>
                            <path d="M0.566720702,123.906089 C7.33996497,115.536311 10.5602079,107.94144 13.4154899,97.6080439 L24.3170856,102.169651 C20.0577777,113.256483 16.1655774,122.695906 13.0999061,130.450833 L0.566720702,123.906089 Z" id="Fill-255" fill="#FDFDFD"></path>
                            <polygon id="Fill-257" fill="#A0A0A1" points="13.416134 97.6088247 26.6663602 96.383027 37.5679558 100.942682 24.3177297 102.16848"></polygon>
                        </g>
                        <g id="Group-262" transform="translate(447.670940, 108.777778)">
                            <mask id="mask-118" fill="white">
                                <use xlink:href="#path-117"></use>
                            </mask>
                            <g id="Clip-261"></g>
                            <path d="M11.5808151,1.74208793 L25.0320013,0.507508681 C20.7080944,11.6737669 16.7568629,21.1808134 13.6425167,28.9893306 L0.191330503,30.2258757 C3.30349737,22.4153927 7.25690821,12.9083461 11.5808151,1.74208793" id="Fill-260" fill="#A3A4A4" mask="url(#mask-118)"></path>
                        </g>
                    </g>
                    <g id="Group-25" stroke="#FFFFFF" stroke-width="5">
                        <path d="M48.1379649,0.249034749 L0.24364577,27.2374517" id="Stroke-1"></path>
                        <polygon id="Stroke-3" points="3.03941499 228.750965 696.386611 228.750965 696.386611 27.2374517 3.03941499 27.2374517"></polygon>
                        <polyline id="Stroke-5" points="48.1379649 27.2374517 48.1379649 0.249034749 741.485161 0.249034749 741.485161 201.762548 696.386047 201.762548"></polyline>
                        <path d="M741.485443,0.249034749 L696.386329,27.2374517" id="Stroke-6"></path>
                        <path d="M741.485443,201.762548 L696.386329,228.750965" id="Stroke-7"></path>
                        <path d="M741.485443,190.214295 L696.386329,217.202712" id="Stroke-8"></path>
                        <path d="M741.485443,178.666041 L696.386329,205.654458" id="Stroke-9"></path>
                        <path d="M741.485443,167.117787 L696.386329,194.106204" id="Stroke-10"></path>
                        <path d="M741.485443,155.568634 L696.386329,182.557051" id="Stroke-11"></path>
                        <path d="M741.485443,144.02038 L696.386329,171.008797" id="Stroke-12"></path>
                        <path d="M741.485443,132.472037 L696.386329,159.460454" id="Stroke-13"></path>
                        <path d="M741.485443,120.923783 L696.386329,147.9122" id="Stroke-14"></path>
                        <path d="M741.485443,109.375529 L696.386329,136.363946" id="Stroke-15"></path>
                        <path d="M741.485443,97.8263761 L696.386329,124.814793" id="Stroke-16"></path>
                        <path d="M741.485443,86.2781224 L696.386329,113.266539" id="Stroke-17"></path>
                        <path d="M741.485443,74.7298687 L696.386329,101.718286" id="Stroke-18"></path>
                        <path d="M741.485443,63.1816151 L696.386329,90.170032" id="Stroke-19"></path>
                        <path d="M741.485443,51.6333614 L696.386329,78.6217784" id="Stroke-20"></path>
                        <path d="M741.485443,40.0851077 L696.386329,67.0735247" id="Stroke-21"></path>
                        <path d="M741.485443,28.5359544 L696.386329,55.5243714" id="Stroke-22"></path>
                        <path d="M741.485443,16.9876108 L696.386329,43.9760278" id="Stroke-23"></path>
                    </g>
                </g>
            </g>
        </g>
    </g>
</svg>