<svg width="1045" height="292" xmlns="http://www.w3.org/2000/svg" xmlns:xlink="http://www.w3.org/1999/xlink"><defs><path id="a" d="M0 292h1637.768V0H0z"/></defs><g fill="none" fill-rule="evenodd"><g transform="translate(-592)"><path d="M660.451 2.819L593.17 36.64" stroke="#FFF" stroke-width="5"/><mask id="b" fill="#fff"><use xlink:href="#a"/></mask><path stroke="#FFF" stroke-width="5" mask="url(#b)" d="M597.097 289.181h974.016V36.641H597.097z"/><path stroke="#FFF" stroke-width="5" mask="url(#b)" d="M660.451 36.64V2.82h974.016v252.54h-63.355M1634.468 2.819l-63.356 33.822M1634.468 255.36l-63.356 33.821M1634.468 240.887l-63.356 33.822M1634.468 226.414l-63.356 33.822M1634.468 211.942l-63.356 33.822M1634.468 197.468l-63.356 33.822M1634.468 182.995l-63.356 33.823M1634.468 168.523l-63.356 33.822M1634.468 154.05l-63.356 33.823M1634.468 139.578l-63.356 33.822M1634.468 125.104l-63.356 33.823M1634.468 110.632l-63.356 33.822M1634.468 96.16l-63.356 33.822M1634.468 81.687l-63.356 33.822M1634.468 67.214l-63.356 33.823M1634.468 52.742l-63.356 33.822M1634.468 38.268l-63.356 33.823M1634.468 23.796l-63.356 33.822"/></g><text font-family="PingFangSC-Semibold, PingFang SC" font-size="174" font-weight="500" letter-spacing="55.19" fill="#FFF" transform="translate(-592)"><tspan x="644.621" y="231">重新拍照</tspan></text></g></svg>