<svg width="745" height="235" xmlns="http://www.w3.org/2000/svg" xmlns:xlink="http://www.w3.org/1999/xlink"><defs><path d="M12.233 1.228C7.648 11.936 3.862 20.862.234 30.08l13.368-1.197C17.23 19.664 21.015 10.736 25.6.027" id="a"/><path d="M.02 1.244c1.824 8.765 3.633 16.5 6.39 24.817l14.3-1.199C17.951 16.546 16.144 8.81 14.321.046" id="c"/><path d="M.321 1.789C3.493 12.1 6.155 19.215 10.016 28.754l13.245-1.22C19.402 17.991 16.74 10.88 13.566.568" id="e"/><path d="M.33 2.065c5.743 9.44 11.448 18.12 17.741 27.12l13.248-1.226C25.026 18.957 19.323 10.276 13.577.837" id="g"/><path d="M6.07 1.449c-1.944.138-3.626.293-5.315.46L15.052.884c1.689-.166 3.37-.321 5.314-.46" id="i"/><path d="M.17 2.22c6.57.902 12.11 1.6 32.928 1.783l13.428-1.43C25.71 2.384 20.167 1.688 13.6.785" id="k"/><path d="M.098 1.366C5.233 2.616 13.58 3.72 17.385 3.72c2.473 0 2.934.799.791 2.355-2.853 2.051-3.248 3.465-3.148 6.926l13.467-1.267c-.102-3.46.295-4.876 3.146-6.923 2.143-1.559 1.682-2.357-.792-2.357-3.804 0-12.149-1.106-17.287-2.356" id="m"/><path d="M13.498.906L.478 1.928c21.404 0 31.199-.337 36.728-.773L50.224.13c-5.53.437-15.322.776-36.726.776" id="o"/><path d="M.832 1.403c.287 9.057.754 19.352 1.727 25.342l14.27-1.238C15.855 19.518 15.386 9.22 15.1.165" id="q"/><path d="M1.011 1.863C.58 7.673.561 16.674.82 24.917l14.058-1.23c-.26-8.243-.241-17.244.19-23.057" id="s"/><path d="M13.253 1.108L.215 2.133c9.092 0 16.766-.313 24.725-.937L37.977.171c-7.957.626-15.635.937-24.724.937" id="u"/><path d="M5.584 1.115c-1.969.16-3.732.342-5.373.559L12.985.65C14.626.435 16.392.251 18.36.091" id="w"/><path d="M.555 2.387c3.392 1.235 7.933 1.725 11.638 1.725 1.102 0 2.13-.043 3.03-.123l12.979-1.435c-.902.08-1.93.123-3.03.123-3.707 0-8.248-.49-11.642-1.722" id="y"/><path d="M2.695 2.173C.288 3.786.007 4.433.07 6.51l14.128-1.295c-.062-2.075.22-2.724 2.626-4.337" id="A"/><path d="M14.823.272L.555 1.708c2.355-.014 2.75 1.836 1.01 3.013L15.83 3.29C17.567 2.116 17.18.272 14.847.272h-.024" id="C"/><path d="M.83 2c14.747 1.005 33.3 1.434 59.782 1.434l13.58-1.153c-26.481 0-45.033-.43-59.783-1.434" id="E"/><path d="M.807 1.863c11.658.858 24.16 1.285 44.407 1.433l13.255-1.15C38.219 1.999 25.716 1.57 14.06.714" id="G"/><path d="M.129 1.304c3.95.523 7.879.793 11.65.793.76 0 1.513-.01 2.256-.032L26.848 1.04c-.745.022-1.499.033-2.26.033-3.772 0-7.699-.27-11.649-.794" id="I"/><path d="M1.742 1.524C.24 2.23-.13 4.803.076 10.947l14.025-1.15c-.205-6.145.163-8.717 1.665-9.427" id="K"/><path d="M13.895.4L.437 1.594c.16-.008.312-.011.462-.011 2.693 0 3.498 1.3.792 2.985l13.455-1.196c2.709-1.683 1.906-2.983-.791-2.983-.146 0-.301.002-.46.011" id="M"/><path d="M.638 1.418c.252 7.926.721 13.112 1.808 18.138l14.266-1.229C15.628 13.3 15.156 8.116 14.904.187" id="O"/><path d="M2.927 2.205C.94 3.878.561 6.05.616 8.05l13.458-1.344c-.055-2 .322-4.173 2.31-5.845" id="Q"/><path d="M.15 1.47c5.442.67 9.84.849 14.519.849 2.484 0 3.1.85 1.382 2.394L29.57 3.329C31.285 1.787 30.674.937 28.19.937 23.51.937 19.11.76 13.668.086" id="S"/><path d="M13.38 2.147L.325 3.297c20.355-.15 33.362-.576 44.786-1.434L58.163.713c-11.425.856-24.43 1.285-44.784 1.434" id="U"/><path d="M13.61 2.28L.473 3.435C25.66 3.434 44 2.856 57.93 2L71.065.847c-13.93.858-32.268 1.434-57.454 1.434" id="W"/><path d="M4.408 1.727c-1.446.111-2.791.232-4.034.362l13.458-1.025c1.242-.129 2.588-.25 4.036-.358" id="Y"/><path d="M.148 1.905c4.734.759 8.235 1.14 10.798 1.14.596 0 1.145-.02 1.646-.062L26.47 1.83c-.501.043-1.045.063-1.646.063-2.563 0-6.062-.383-10.795-1.14" id="aa"/><path d="M18.728 1.425C11.998 4.638 5.843 7.85.241 10.905L13.363 9.67C18.964 6.616 25.12 3.405 31.848.19" id="ac"/><path d="M.115 1.991c5.032.708 11.32.988 19.466 1.137l13.186-1.154C24.621 1.829 18.333 1.547 13.3.839" id="ae"/><path d="M22.879 1.462c.35 11.945-2.2 14.302-22.777 16.821l13.432-1.266C34.11 14.494 36.66 12.138 36.315.194" id="ag"/><path d="M.072 2.12c3.816 1.031 7.271 1.464 10.302 1.464.931 0 1.82-.041 2.669-.12L26.46 2.123c-.846.075-1.735.117-2.666.117-3.029 0-6.486-.434-10.302-1.463" id="ai"/><path d="M13.647.78L.287 1.955c.56-.05 1.057-.075 1.494-.075 3.21 0 3.16 1.323.702 3.867C.526 7.797.004 9.83.078 12.167l13.356-1.173c-.071-2.338.448-4.372 2.405-6.424C18.3 2.026 18.348.705 15.14.705c-.437 0-.933.026-1.493.075" id="ak"/><path d="M18.599 1.41C12.276 4.01 6.104 6.594.063 9.177L13.186 7.95A1488.42 1488.42 0 0 1 31.72.182" id="am"/><path d="M.252 1.878C-.22 5.96.222 10.355 1.568 14.125l14.193-1.219C14.416 9.138 13.972 4.741 14.446.659" id="ao"/><path d="M14.123.94L.516 1.965c6.52-.1 11.95-.264 16.484-.604L30.608.337c-4.538.34-9.966.504-16.485.603" id="aq"/><path d="M.6 1.063c6.707.513 13.987.76 20.545.893L34.865.932C28.309.8 21.029.551 14.322.04" id="as"/><path d="M13.859.522L.736 1.835c5.899 2.782 12.932 5.057 17.498 5.866l13.12-1.315" id="au"/><path d="M12.456 1.391c2.09.309 2.552 1.888-1.16 3.302-2.62.945-5.289 4.72-10.727 19.041l12.828-1.268C18.836 8.145 21.502 4.37 24.123 3.426 27.835 2.01 27.373.43 25.28.122" id="aw"/><path d="M.024 1.343c.338 10.914.686 17.07 1.779 23.53l13.983-1.24c-1.092-6.46-1.441-12.616-1.779-23.528" id="ay"/><path d="M.31 1.287c-.402 6.158-.345 13.078-.022 23.53l14.026-1.24c-.322-10.451-.381-17.374.025-23.53" id="aA"/><path d="M13.54.932L.164 1.956c7.39 0 15.047-.38 21.698-.893L35.239.039c-6.652.512-14.31.893-21.7.893" id="aC"/><path d="M.753 1.881C2.3 8.998 5.17 20.896 6.663 26.158l13.673-1.247c-1.488-5.26-4.362-17.159-5.91-24.278" id="aE"/><path d="M.053 1.874c1.816 6.713 4.921 16.788 7.166 23.041l13.584-1.232C18.56 17.43 15.453 7.356 13.637.646" id="aG"/><path d="M.494 1.686c3.696 6.73 9.319 16.031 14.447 23.355l12.979-1.229C22.792 16.482 17.172 7.185 13.47.455" id="aI"/><path id="aK" d="M.28.277h26.411V8.36H.281z"/><path d="M.155 1.247c.158 4.964.432 9.14 1.388 14.39l14.351-1.25C14.941 9.14 14.662 4.963 14.506 0" id="aM"/><path d="M.236 2.383c4.613 1.065 11.389 1.784 21.72 1.784 6.692 0 11.519-.221 15.026-.6l13.247-1.433c-3.507.381-8.334.6-15.024.6-10.333 0-17.107-.716-21.724-1.782" id="aO"/><path d="M1.224 2.121C.541 5.013.374 9.518.515 14.173l14.352-1.298c-.142-4.653.025-9.155.709-12.047" id="aQ"/><path d="M3.7 1.773c-1.228.093-2.369.194-3.426.305l13.46-1.024c1.055-.109 2.193-.211 3.425-.306" id="aS"/><path d="M1.646 1.361c-.451.29-1.06.582-1.511.89l14.191-1.194c.45-.308 1.065-.597 1.516-.888" id="aU"/><path d="M5.806 1.183c-2.4.171-4.282.377-5.345.58L14.762.738C15.823.536 17.704.331 20.107.16" id="aW"/><path d="M21.557 1.78c-1.04 13.679-5.81 28.4-20.972 39.374l13.375-1.213C29.122 28.966 33.894 14.248 34.93.567" id="aY"/><path d="M.027.847c2.49.182 4.633.271 6.458.271.937 0 1.785-.023 2.559-.07L21.949.283c-.773.046-1.626.069-2.56.069-1.826 0-3.969-.088-6.459-.272" id="ba"/><path d="M.568 1.29c5.929.762 13.528 1.011 24.492 1.011 8.663 0 15.183-.186 20.425-.6L58.46.676c-5.24.414-11.76.602-20.42.602-10.965 0-18.566-.25-24.495-1.012" id="bc"/><path d="M.652 1.891c.238 7.286.952 14.86 1.877 19.761l14.266-1.2c-.924-4.9-1.639-12.475-1.877-19.756" id="be"/><path d="M1.219 1.207C.765 6.197.403 13.413.642 20.763l14.059-1.185c-.24-7.351.123-14.567.576-19.56" id="bg"/><path d="M.04 2.184c3.113.883 18.36 1.784 28.088 1.784 9.812 0 21.172-.588 27.456-1.282l13.015-1.432c-6.284.69-17.642 1.282-27.456 1.282-9.727 0-24.976-.901-28.088-1.787" id="bi"/><path d="M22.96 1.783c-.453 8.684-1.81 26.037-3.132 34.859C18.577 45.373 15.806 48.22.182 49.63l13.363-1.206c15.624-1.41 18.397-4.257 19.646-12.987 1.321-8.823 2.68-26.177 3.131-34.862" id="bk"/><path d="M11.581 1.743C7.255 12.908 3.304 22.415.194 30.225l13.45-1.236C16.757 21.182 20.708 11.673 25.03.507" id="bm"/></defs><g fill="none" fill-rule="evenodd"><path d="M61 192.995c7.437-8.777 12.313-17.412 15.404-28.64l10.668 4.62c-4.51 11.086-8.233 20.324-11.802 29.866L61 192.995z" fill="#FDFDFD"/><path fill="#A0A0A1" d="M76.403 164.354l13.148-1.242 10.668 4.618-13.147 1.244z"/><g transform="translate(73.265 167.556)"><mask id="b" fill="#fff"><use xlink:href="#a"/></mask><path d="M12.232 1.227L25.6.027C21.017 10.738 17.229 19.665 13.6 28.88L.233 30.08c3.628-9.219 7.414-18.143 12-28.853" fill="#A3A4A4" mask="url(#b)"/></g><path d="M100.248 170.145l11.412-1.367c1.644 8.958 3.274 16.862 5.759 25.364l-13.503 1.525c-.131-9.57-1.037-16.408-3.668-25.522" fill="#FDFDFD"/><g transform="translate(113.74 167.556)"><mask id="d" fill="#fff"><use xlink:href="#c"/></mask><path d="M.021 1.245l14.3-1.198c1.822 8.764 3.632 16.498 6.389 24.816l-14.3 1.199C3.655 17.744 1.846 10.01.022 1.245" fill="#A3A4A4" mask="url(#d)"/></g><path fill="#9F9FA0" d="M118.732 195.017l13.503-1.206-14.148 1.502-13.503 1.207z"/><path d="M130.94 168.84l11.756-3.004c3.232 10.188 5.947 17.216 9.882 26.643l-13.981 1.95c-2.044-9.289-3.866-16.47-7.658-25.588" fill="#FDFDFD"/><g transform="translate(141.949 162.667)"><mask id="f" fill="#fff"><use xlink:href="#e"/></mask><path d="M.32 1.79L13.568.568c3.17 10.312 5.834 17.425 9.695 26.966l-13.247 1.221C6.154 19.214 3.493 12.101.32 1.79" fill="#A3A4A4" mask="url(#f)"/></g><path fill="#9F9FA0" d="M152.646 191.954l13.33-1.256-13.803 2.033-13.33 1.257z"/><path d="M173.136 161.557c5.78 9.66 11.52 18.546 17.855 27.754l-14.116 6.224c-3.646-10.757-8.382-20.11-14.587-29.463l10.848-4.515z" fill="#FDFDFD"/><g transform="translate(171.385 160.222)"><mask id="h" fill="#fff"><use xlink:href="#g"/></mask><path d="M.33 2.065L13.577.837c5.744 9.44 11.449 18.12 17.742 27.12l-13.245 1.228c-6.295-8.997-12-17.68-17.744-27.12" fill="#A3A4A4" mask="url(#h)"/></g><path fill="#A0A0A1" d="M188.941 189.564l13.106-1.23-13.877 6.1-13.106 1.233z"/><g transform="translate(81.85 155.333)"><mask id="j" fill="#fff"><use xlink:href="#i"/></mask><path d="M6.069 1.45L20.368.425c-1.944.138-3.626.293-5.315.46L.754 1.908c1.69-.167 3.371-.321 5.315-.46" fill="#A3A4A4" mask="url(#j)"/></g><path fill="#A5A5A6" d="M91.662 121.09l11.646-1.201.62 23.243-11.647 1.201z"/><g transform="translate(79.397 106.444)"><mask id="l" fill="#fff"><use xlink:href="#k"/></mask><path d="M.17 2.22L13.6.786c6.569.9 12.108 1.599 32.928 1.784L33.098 4.004C12.278 3.819 6.738 3.123.17 2.219" fill="#A3A4A4" mask="url(#l)"/></g><path fill="#A5A5A6" d="M124.778 91.806l11.79-1.25.475 18.305-11.791 1.25zM124.778 72.168L136.834 71l.209 7.388-12.056 1.168z"/><g transform="translate(110.06 61.222)"><mask id="n" fill="#fff"><use xlink:href="#m"/></mask><path d="M.098 1.365L13.562.1c5.136 1.25 13.483 2.357 17.287 2.357 2.472 0 2.935.797.792 2.356-2.851 2.049-3.248 3.46-3.146 6.923l-13.467 1.266c-.1-3.46.295-4.874 3.148-6.923 2.143-1.559 1.682-2.357-.791-2.357C13.58 3.72 5.233 2.616.098 1.365" fill="#A3A4A4" mask="url(#n)"/></g><path fill="#9F9FA0" d="M106.226 143.111l-13.337 1.222h62.706l13.337-1.222zM137.911 79.556l-13.133 1.222h24.886l13.135-1.222z"/><g transform="translate(124.778 107.667)"><mask id="p" fill="#fff"><use xlink:href="#o"/></mask><path d="M.478 1.928L13.498.905C34.903.905 44.696.567 50.225.13l-13.02 1.025c-5.527.433-15.322.772-36.726.772" fill="#A3A4A4" mask="url(#p)"/></g><g transform="translate(167.705 129.667)"><mask id="r" fill="#fff"><use xlink:href="#q"/></mask><path d="M.832 1.403L15.098.165c.287 9.056.756 19.353 1.73 25.344L2.56 26.747C1.588 20.755 1.118 10.46.83 1.403" fill="#A3A4A4" mask="url(#r)"/></g><g transform="translate(167.705 106.444)"><mask id="t" fill="#fff"><use xlink:href="#s"/></mask><path d="M1.01 1.861L15.07.631c-.433 5.812-.45 14.814-.192 23.056L.82 24.918C.562 16.675.578 7.674 1.01 1.861" fill="#A3A4A4" mask="url(#t)"/></g><g transform="translate(149.308 78.333)"><mask id="v" fill="#fff"><use xlink:href="#u"/></mask><path d="M.215 2.133l13.038-1.024c9.09 0 16.767-.313 24.722-.937L24.94 1.195c-7.96.626-15.633.938-24.725.938" fill="#A3A4A4" mask="url(#v)"/></g><path fill="#A5A5A6" d="M177.517 79.528l11.897-1.195.368 13.473L177.885 93z"/><path d="M155.694 144.18l-.707-23.833H92.45l.707 23.832h62.537m11.432-13.133c.267 9.009.705 19.25 1.612 25.21-9.968-.918-18.06-1.217-43.133-1.217-30.547 0-37.595.599-44.768 1.517.662-6.877.949-16.801.677-25.967-.246-8.251-1.244-17.26-2.117-22.616 6.508.775 11.995 1.375 32.618 1.532l-.72-24.29c-.317-10.7-.99-18.793-2.16-23.993 5.076 1.216 13.323 2.293 17.08 2.293 2.444 0 2.899.775.784 2.29-2.82 1.994-3.211 3.369-3.11 6.734l.23 7.793h25.208c10.242 0 18.726-.46 27.778-1.375l.412 13.89c-8.529-1.057-17.616-1.375-27.71-1.375H124.45l.535 18.033c29.83 0 37.59-.757 42.323-1.532-.41 5.815-.425 14.824-.181 23.073" fill="#FDFDFD"/><g transform="translate(222.897 190.778)"><mask id="x" fill="#fff"><use xlink:href="#w"/></mask><path d="M5.584 1.116L18.358.092c-1.968.158-3.732.342-5.373.56L.211 1.674c1.641-.217 3.405-.401 5.373-.56" fill="#A3A4A4" mask="url(#x)"/></g><path fill="#A5A5A6" d="M233.936 151.658l11.5-1.214.765 29.343L234.7 181z"/><g transform="translate(220.444 141.889)"><mask id="z" fill="#fff"><use xlink:href="#y"/></mask><path d="M.553 2.389L13.53.956c3.394 1.232 7.935 1.723 11.64 1.723 1.102 0 2.13-.044 3.03-.124L15.225 3.988c-.902.08-1.93.123-3.032.123-3.705 0-8.246-.49-11.64-1.722" fill="#A3A4A4" mask="url(#z)"/></g><g transform="translate(233.936 145.556)"><mask id="B" fill="#fff"><use xlink:href="#A"/></mask><path d="M2.695 2.172L16.825.877C14.42 2.49 14.139 3.139 14.2 5.214L.07 6.512C.007 4.435.29 3.785 2.695 2.172" fill="#A3A4A4" mask="url(#B)"/></g><g transform="translate(235.162 143.111)"><mask id="D" fill="#fff"><use xlink:href="#C"/></mask><path d="M.556 1.707L14.823.274c2.353-.013 2.748 1.837 1.008 3.014L1.566 4.721C3.305 3.546 2.912 1.696.556 1.707" fill="#A3A4A4" mask="url(#D)"/></g><path fill="#9F9FA0" d="M248.291 180.11l-13.129.89 28.572-.332 13.13-.89z"/><g transform="translate(203.274 117.444)"><mask id="F" fill="#fff"><use xlink:href="#E"/></mask><path d="M.828 1.999L14.41.848C29.16 1.852 47.712 2.28 74.192 2.28L60.611 3.433c-26.48 0-45.033-.43-59.783-1.434" fill="#A3A4A4" mask="url(#F)"/></g><g transform="translate(216.765 82)"><mask id="H" fill="#fff"><use xlink:href="#G"/></mask><path d="M.808 1.863L14.061.712c11.656.856 24.16 1.285 44.409 1.433L45.214 3.297C24.968 3.148 12.464 2.72.808 1.863" fill="#A3A4A4" mask="url(#H)"/></g><path fill="#A5A5A6" d="M274.41 132.113l14.369-1.224 1.576 48.889L275.986 181zM274.41 95.482l11.616-1.26.65 25.63-11.616 1.26zM274.41 75.933l12.012-1.266.253 9.733-12.012 1.267z"/><g transform="translate(258.466 61.222)"><mask id="J" fill="#fff"><use xlink:href="#I"/></mask><path d="M.129 1.303L12.939.28c3.95.523 7.88.794 11.65.794.76 0 1.514-.01 2.259-.033l-12.81 1.023c-.746.023-1.5.033-2.259.033-3.771 0-7.7-.27-11.65-.794" fill="#A3A4A4" mask="url(#J)"/></g><g transform="translate(274.41 64.889)"><mask id="L" fill="#fff"><use xlink:href="#K"/></mask><path d="M1.74 1.524L15.768.372c-1.502.708-1.87 3.278-1.665 9.426L.075 10.948C-.13 4.805.239 2.232 1.74 1.525" fill="#A3A4A4" mask="url(#L)"/></g><g transform="translate(274.41 61.222)"><mask id="N" fill="#fff"><use xlink:href="#M"/></mask><path d="M.438 1.594L13.895.4c.16-.007.312-.011.46-.011 2.695 0 3.498 1.3.792 2.985L1.689 4.568C4.395 2.883 3.593 1.583.898 1.583c-.146 0-.301.004-.46.011" fill="#A3A4A4" mask="url(#N)"/></g><path fill="#9F9FA0" d="M288.764 180.027l-13.127.973 28.575-.251 13.126-.971z"/><g transform="translate(317.338 181)"><mask id="P" fill="#fff"><use xlink:href="#O"/></mask><path d="M.638 1.417L14.904.189c.254 7.928.721 13.112 1.81 18.138L2.447 19.555C1.36 14.529.89 9.345.637 1.417" fill="#A3A4A4" mask="url(#P)"/></g><path fill="#A5A5A6" d="M317.338 151.694l11.464-1.25.8 31.751-11.464 1.25z"/><g transform="translate(316.111 145.556)"><mask id="R" fill="#fff"><use xlink:href="#Q"/></mask><path d="M2.928 2.204L16.385.86c-1.988 1.673-2.365 3.844-2.31 5.844L.615 8.047C.562 6.05.94 3.877 2.928 2.204" fill="#A3A4A4" mask="url(#R)"/></g><g transform="translate(302.62 141.889)"><mask id="T" fill="#fff"><use xlink:href="#S"/></mask><path d="M.15 1.468L13.667.086c5.443.674 9.841.852 14.52.852 2.486 0 3.1.85 1.384 2.391L16.051 4.711c1.717-1.542 1.102-2.392-1.382-2.392-4.679 0-9.08-.178-14.52-.85" fill="#A3A4A4" mask="url(#T)"/></g><path fill="#A5A5A6" d="M318.564 84.44l11.904-1.218.361 13.451-11.904 1.216z"/><g transform="translate(274.41 82)"><mask id="V" fill="#fff"><use xlink:href="#U"/></mask><path d="M.327 3.297L13.38 2.146c20.353-.149 33.359-.578 44.784-1.434L45.111 1.863C33.686 2.721 20.681 3.15.327 3.297" fill="#A3A4A4" mask="url(#V)"/></g><path d="M259.437 61.904c4.101.63 8.18.957 12.097.957.788 0 1.57-.012 2.344-.04.157-.008.31-.012.457-.012 2.661 0 3.457 1.344.78 3.085-1.422.758-1.773 3.514-1.58 10.1l.283 9.482c20.742-.161 33.995-.619 45.639-1.538l.405 13.632c-11.704-1.077-24.985-1.537-45.738-1.696l.745 25.109c25.503 0 44.07-.62 58.175-1.537l.416 14.072c-14.163-1.059-32.767-1.677-58.27-1.677l1.46 49.28 28.95-.319-.616-20.798c-.231-7.805-.53-13.473-1.19-16.07 5.353.601 9.683.76 14.286.76 2.443 0 3.049.759 1.36 2.136-1.966 1.538-2.339 3.532-2.285 5.369l.929 31.357c.235 7.965.672 13.173 1.687 18.221h-13.55l-.304-10.256-57.31.915c-12.965.16-20.581.619-26.606 1.538.881-3.992 1.226-6.885.954-16.067l-.584-19.742c-.176-5.966-.478-11.634-1.29-14.388 3.478 1.06 8.135 1.483 11.93 1.483 1.129 0 2.183-.037 3.107-.106 2.194-.01 2.562 1.584.94 2.595-2.265 1.537-2.53 2.153-2.47 4.132l.881 29.839 28.949-.46-1.464-49.42c-26.084 0-44.22.62-58.452 1.678l-.418-14.072c14.447 1.077 32.614 1.537 58.55 1.537l-.744-25.109c-20.311.16-32.983.62-44.473 1.696l-.403-13.632c11.7.92 24.246 1.377 44.568 1.538-.272-9.182-1.19-20.5-2.145-23.572" fill="#FDFDFD"/><path fill="#A5A5A6" d="M333.043 119.446l13.301-1.234.416 14.072-13.3 1.233z"/><g transform="translate(274.41 117.444)"><mask id="X" fill="#fff"><use xlink:href="#W"/></mask><path d="M.474 3.433L13.61 2.282c25.186 0 43.526-.578 57.454-1.434L57.928 2C43.998 2.856 25.66 3.433.474 3.433" fill="#A3A4A4" mask="url(#X)"/></g><g transform="translate(351.68 104)"><mask id="Z" fill="#fff"><use xlink:href="#Y"/></mask><path d="M4.409 1.728L17.866.705c-1.448.11-2.79.231-4.036.36L.373 2.09c1.245-.13 2.588-.251 4.036-.36" fill="#A3A4A4" mask="url(#Z)"/></g><g transform="translate(355.359 181)"><mask id="ab" fill="#fff"><use xlink:href="#aa"/></mask><path d="M.15 1.905L14.027.754c4.733.759 8.232 1.14 10.797 1.14.598 0 1.145-.02 1.644-.062L12.59 2.983c-.5.042-1.048.062-1.644.062-2.566 0-6.064-.381-10.798-1.14" fill="#A3A4A4" mask="url(#ab)"/></g><g transform="translate(354.132 145.556)"><mask id="ad" fill="#fff"><use xlink:href="#ac"/></mask><path d="M18.727 1.425L31.848.19C25.12 3.405 18.965 6.618 13.363 9.673L.243 10.906c5.6-3.056 11.755-6.268 18.484-9.481" fill="#A3A4A4" mask="url(#ad)"/></g><g transform="translate(351.68 91.778)"><mask id="af" fill="#fff"><use xlink:href="#ae"/></mask><path d="M.114 1.99L13.3.84c5.034.707 11.321.988 19.468 1.136L19.58 3.127C11.435 2.978 5.145 2.697.114 1.99" fill="#A3A4A4" mask="url(#af)"/></g><g transform="translate(361.491 181)"><mask id="ah" fill="#fff"><use xlink:href="#ag"/></mask><path d="M22.88 1.461L36.314.195c.348 11.945-2.203 14.3-22.78 16.82L.101 18.283c20.577-2.519 23.128-4.876 22.78-16.82" fill="#A3A4A4" mask="url(#ah)"/></g><path fill="#A5A5A6" d="M383.568 141.907l14.601-1.24 1.344 41.537-14.603 1.24zM382.342 106.468l11.639-1.246.626 24.421-11.637 1.246zM381.115 75.872l11.742-1.205.523 19.572-11.741 1.205z"/><g transform="translate(368.85 61.222)"><mask id="aj" fill="#fff"><use xlink:href="#ai"/></mask><path d="M.072 2.12L13.492.777C17.31 1.808 20.765 2.24 23.796 2.24c.93 0 1.82-.04 2.668-.118l-13.42 1.344a29.51 29.51 0 0 1-2.669.117c-3.03 0-6.486-.434-10.302-1.463" fill="#A3A4A4" mask="url(#aj)"/></g><g transform="translate(381.115 62.444)"><mask id="al" fill="#fff"><use xlink:href="#ak"/></mask><path d="M.289 1.954L13.647.779a17.401 17.401 0 0 1 1.491-.073c3.21 0 3.163 1.32.702 3.865-1.957 2.05-2.476 4.086-2.405 6.422L.076 12.168C.005 9.832.524 7.796 2.481 5.746 4.942 3.202 4.99 1.879 1.78 1.879c-.435 0-.933.026-1.491.075" fill="#A3A4A4" mask="url(#al)"/></g><g transform="translate(383.568 132.111)"><mask id="an" fill="#fff"><use xlink:href="#am"/></mask><path d="M18.598 1.41L31.719.182C25.4 2.783 19.225 5.366 13.185 7.95L.065 9.178A1472.437 1472.437 0 0 1 18.597 1.41" fill="#A3A4A4" mask="url(#an)"/></g><g transform="translate(400.74 119.889)"><mask id="ap" fill="#fff"><use xlink:href="#ao"/></mask><path d="M.252 1.877L14.446.658c-.472 4.083-.03 8.48 1.315 12.247L1.568 14.126C.222 10.356-.222 5.96.252 1.877" fill="#A3A4A4" mask="url(#ap)"/></g><g transform="translate(381.115 93)"><mask id="ar" fill="#fff"><use xlink:href="#aq"/></mask><path d="M.516 1.965L14.123.94c6.52-.1 11.95-.264 16.485-.604L17 1.36c-4.535.34-9.965.505-16.484.605" fill="#A3A4A4" mask="url(#ar)"/></g><path fill="#A5A5A6" d="M401.966 94.258L413.88 93l.35 13.41-11.916 1.257z"/><path d="M381.567 75.518l.602 19.871c8.654-.157 15.375-.455 20.629-1.207l.394 13.043c-5.293-.613-12.036-1.067-20.696-1.067l.73 23.985c6.08-2.435 12.152-5.166 18.22-8.055-.45 4.097-.03 8.51 1.253 12.292a1548 1548 0 0 0-19.11 7.737l1.244 40.968c.35 11.538-2.217 13.815-22.944 16.248.165-4.096-1.464-9.262-5.462-15.634 4.614.806 8.025 1.212 10.526 1.212 5.484 0 6.598-1.954 6.477-5.922l-.971-32.004c-6.938 3.185-13.283 6.372-19.061 9.401-.447-5.304-2.251-11.222-4.172-16.544 7.589-1.21 15.292-3.187 22.845-5.602l-.857-28.222c-8.35.14-14.932.594-19.9 1.207l-.395-13.043c5.162.752 11.613 1.05 19.973 1.207-.54-17.753-1.044-24.877-2.284-31.722 3.847.937 7.332 1.332 10.387 1.332.936 0 1.833-.037 2.688-.109a17.608 17.608 0 0 1 1.609-.086c3.25 0 3.202 1.38.71 4.027-1.982 2.135-2.51 4.254-2.435 6.687" fill="#FDFDFD"/><path fill="#A5A5A6" d="M420.363 187.117l.357 13.439 11.908-1.231-.359-13.436zM419.137 143.093l11.405-1.204.86 33.018-11.406 1.204zM416.684 99.104l11.412-1.215.853 33.007-11.415 1.215z"/><g transform="translate(403.192 85.667)"><mask id="at" fill="#fff"><use xlink:href="#as"/></mask><path d="M.601 1.062L14.321.04C21.03.552 28.31.8 34.868.932l-13.72 1.023C14.589 1.825 7.308 1.575.6 1.062" fill="#A3A4A4" mask="url(#at)"/></g><path fill="#9F9FA0" d="M449.75 86.889l-13.442 1.222h13.541l13.442-1.222z"/><g transform="translate(430.175 60)"><mask id="av" fill="#fff"><use xlink:href="#au"/></mask><path d="M.736 1.836L13.859.523c5.897 2.781 12.93 5.057 17.494 5.864L18.233 7.7C13.667 6.89 6.634 4.618.735 1.836" fill="#A3A4A4" mask="url(#av)"/></g><path fill="#9F9FA0" d="M433.706 174.889l-13.343 1.222h40.624l13.342-1.222z"/><g transform="translate(435.081 64.889)"><mask id="ax" fill="#fff"><use xlink:href="#aw"/></mask><path d="M12.455 1.39L25.282.12c2.092.309 2.552 1.888-1.16 3.304-2.618.943-5.287 4.72-10.725 19.041L.57 23.734C6.007 9.414 8.677 5.64 11.295 4.694c3.714-1.416 3.253-2.996 1.16-3.305" fill="#A3A4A4" mask="url(#ax)"/></g><path fill="#9F9FA0" d="M432.479 130.889l-13.342 1.222h40.623l13.343-1.222z"/><g transform="translate(473.103 174.889)"><mask id="az" fill="#fff"><use xlink:href="#ay"/></mask><path d="M.024 1.343L14.008.103c.337 10.912.688 17.07 1.778 23.53L1.803 24.871C.71 18.413.362 12.255.024 1.343" fill="#A3A4A4" mask="url(#az)"/></g><path fill="#A5A5A6" d="M469.423 111.34l13.93-1.229 2.015 64.772-13.927 1.228z"/><g transform="translate(469.423 85.667)"><mask id="aB" fill="#fff"><use xlink:href="#aA"/></mask><path d="M.311 1.287l14.03-1.24c-.408 6.158-.349 13.078-.026 23.53L.288 24.818C-.034 14.365-.093 7.445.311 1.287" fill="#A3A4A4" mask="url(#aB)"/></g><g transform="translate(447.346 85.667)"><mask id="aD" fill="#fff"><use xlink:href="#aC"/></mask><path d="M.164 1.956L13.538.932c7.39 0 15.048-.38 21.703-.893L21.864 1.063c-6.653.513-14.31.893-21.7.893" fill="#A3A4A4" mask="url(#aD)"/></g><g fill="#FDFDFD"><path d="M417.197 99.836l.989 33.513h40.42l-.99-33.513h-40.42m2.293 77.583h40.418l-.997-33.83H418.49l.998 33.83m54.16 22.494h-13.075l-.348-11.795h-40.42l.398 13.472H406.98c.633-7.803.762-13.013.448-23.572l-1.975-66.864c-.294-9.94-.634-16.985-1.68-23.113 6.49.62 13.533.92 19.878 1.077 3.317-9.021 5.33-18.98 6.096-27.242 5.968 2.613 13.083 4.748 17.7 5.507 2.167.3 2.644 1.838-1.197 3.213-2.712.92-5.474 4.592-11.1 18.522h13.371c7.337 0 14.937-.458 21.538-1.077-.383 6.128-.327 13.013-.021 23.414l1.923 65.045c.32 10.86.651 16.985 1.688 23.413M534.265 173.128l10.726-1.996c1.505 7.046 4.289 18.824 5.738 24.032l-12.58 2.135c-.176-5.968-2.112-17.584-3.884-24.171"/></g><g transform="translate(545.466 167.556)"><mask id="aF" fill="#fff"><use xlink:href="#aE"/></mask><path d="M.753 1.881L14.426.635c1.549 7.117 4.42 19.015 5.91 24.276L6.665 26.159C5.17 20.898 2.302 8.998.754 1.881" fill="#A3A4A4" mask="url(#aF)"/></g><path fill="#9F9FA0" d="M551.208 193.03l13.439-1.217-12.735 2.103-13.441 1.214z"/><path d="M564.047 169.996l12.043-1.65c1.796 6.617 4.87 16.552 7.09 22.72l-13.496 1.354c-1.076-6.617-3.249-15.65-5.637-22.424" fill="#FDFDFD"/><g transform="translate(576.128 167.556)"><mask id="aH" fill="#fff"><use xlink:href="#aG"/></mask><path d="M.053 1.876L13.636.645c1.816 6.71 4.924 16.785 7.169 23.037L7.219 24.915C4.974 18.66 1.869 8.585.053 1.875" fill="#A3A4A4" mask="url(#aH)"/></g><path fill="#9F9FA0" d="M582.332 191.475l13.333-1.201-13.389 1.339-13.33 1.199z"/><path d="M605.993 166.93c3.8 6.557 9.574 15.619 14.84 22.757l-13.799 7.003c-2.786-6.691-8.045-18.003-12.039-25.435l10.998-4.326z" fill="#FDFDFD"/><g transform="translate(606.79 165.111)"><mask id="aJ" fill="#fff"><use xlink:href="#aI"/></mask><path d="M.494 1.686L13.47.456c3.7 6.73 9.32 16.028 14.449 23.356l-12.98 1.229C9.814 17.715 4.192 8.416.494 1.686" fill="#A3A4A4" mask="url(#aJ)"/></g><g transform="translate(608.017 188.333)"><mask id="aL" fill="#fff"><use xlink:href="#aK"/></mask><path fill="#A0A0A1" mask="url(#aL)" d="M13.714 1.459L26.694.277 13.257 7.179.28 8.36z"/></g><path fill="#A5A5A6" d="M514.803 150.487l12.012-1.265.253 9.738-12.01 1.262zM514.803 117.475l11.613-1.253.652 25.637-11.612 1.252zM512.35 81.988l11.62-1.21.645 24.456-11.619 1.21z"/><path fill="#9F9FA0" d="M528.017 140.667l-13.214 1.222h19.902l13.214-1.222zM525.563 106.444l-13.213 1.223h19.903l13.213-1.223z"/><g transform="translate(545.466 141.889)"><mask id="aN" fill="#fff"><use xlink:href="#aM"/></mask><path d="M.155 1.248L14.506.001c.156 4.963.433 9.14 1.389 14.387L1.543 15.635C.59 10.388.311 6.211.155 1.248" fill="#A3A4A4" mask="url(#aN)"/></g><g transform="translate(500.085 69.778)"><mask id="aP" fill="#fff"><use xlink:href="#aO"/></mask><path d="M.236 2.383L13.483.951c4.613 1.065 11.389 1.784 21.721 1.784 6.69 0 11.518-.222 15.025-.6L36.98 3.567c-3.507.38-8.334.6-15.026.6-10.33 0-17.107-.718-21.72-1.784" fill="#A3A4A4" mask="url(#aP)"/></g><path fill="#A5A5A6" d="M543.013 82.003l14.024-1.225 1.92 61.108-14.024 1.225z"/><g transform="translate(543.013 69.778)"><mask id="aR" fill="#fff"><use xlink:href="#aQ"/></mask><path d="M1.225 2.122L15.576.827c-.684 2.891-.851 7.396-.71 12.049L.517 14.17C.373 9.518.54 5.013 1.224 2.12" fill="#A3A4A4" mask="url(#aR)"/></g><path d="M512.224 82.316l.757 24.888h20.51l-.758-24.888h-20.509m1.046 34.37l.763 25.204h20.51l-.764-25.204H513.27m-9.873 29.171l-1.924-63.4c-.132-4.266-.701-8.549-1.388-11.457 4.742.916 11.707 1.534 22.325 1.534 12.39 0 18.568-.618 21.774-1.534-.649 2.75-.808 7.033-.67 11.457l1.861 61.408c.15 4.9.413 9.025 1.317 14.206h-11.657l-.223-7.333H514.3l.29 9.484h-11.64c.568-5.358.604-9.166.447-14.365" fill="#FDFDFD"/><g transform="translate(557.73 157.778)"><mask id="aT" fill="#fff"><use xlink:href="#aS"/></mask><path d="M3.7 1.773L17.16.749c-1.233.093-2.37.196-3.426.305L.274 2.078c1.058-.11 2.198-.212 3.426-.305" fill="#A3A4A4" mask="url(#aT)"/></g><g transform="translate(555.278 121.111)"><mask id="aV" fill="#fff"><use xlink:href="#aU"/></mask><path d="M1.647 1.362L15.841.168c-.451.29-1.063.581-1.514.887L.134 2.251c.45-.308 1.062-.599 1.513-.89" fill="#A3A4A4" mask="url(#aV)"/></g><g transform="translate(552.825 80.778)"><mask id="aX" fill="#fff"><use xlink:href="#aW"/></mask><path d="M5.806 1.183L20.107.16c-2.402.173-4.285.376-5.347.58L.462 1.762c1.06-.202 2.944-.408 5.344-.579" fill="#A3A4A4" mask="url(#aX)"/></g><path fill="#A5A5A6" d="M568.77 132.1l11.807-1.211.457 17.122-11.808 1.211z"/><g transform="translate(558.957 79.556)"><mask id="aZ" fill="#fff"><use xlink:href="#aY"/></mask><path d="M21.556 1.779L34.931.567c-1.04 13.68-5.81 28.4-20.972 39.375L.584 41.153C15.747 30.18 20.518 15.458 21.556 1.78" fill="#A3A4A4" mask="url(#aZ)"/></g><g transform="translate(582.26 104)"><mask id="bb" fill="#fff"><use xlink:href="#ba"/></mask><path d="M.027.848L12.931.081c2.49.182 4.632.27 6.458.27.934 0 1.785-.024 2.559-.069L9.042 1.05c-.771.045-1.622.068-2.557.068-1.825 0-3.968-.089-6.458-.27" fill="#A3A4A4" mask="url(#bb)"/></g><path fill="#9F9FA0" d="M581.748 149.222l-12.979 1.222h29.947l12.98-1.222z"/><g transform="translate(558.957 119.889)"><mask id="bd" fill="#fff"><use xlink:href="#bc"/></mask><path d="M.568 1.29L13.545.266c5.929.761 13.528 1.01 24.495 1.01 8.66 0 15.18-.187 20.42-.599L45.483 1.701c-5.24.413-11.758.6-20.423.6C14.098 2.3 6.497 2.05.568 1.29" fill="#A3A4A4" mask="url(#bd)"/></g><g transform="translate(609.244 139.444)"><mask id="bf" fill="#fff"><use xlink:href="#be"/></mask><path d="M.653 1.893L14.92.695c.236 7.282.95 14.857 1.874 19.757l-14.264 1.2C1.603 16.749.892 9.176.653 1.892" fill="#A3A4A4" mask="url(#bf)"/></g><g transform="translate(609.244 119.889)"><mask id="bh" fill="#fff"><use xlink:href="#bg"/></mask><path d="M1.22 1.206L15.278.02c-.453 4.99-.817 12.206-.576 19.558L.644 20.764c-.24-7.352.123-14.565.576-19.558" fill="#A3A4A4" mask="url(#bh)"/></g><g transform="translate(552.825 67.333)"><mask id="bj" fill="#fff"><use xlink:href="#bi"/></mask><path d="M.04 2.184L13.055.75c3.11.88 18.36 1.784 28.088 1.784 9.814 0 21.172-.588 27.456-1.282L55.584 2.686c-6.284.691-17.642 1.282-27.456 1.282-9.727 0-24.975-.901-28.088-1.784" fill="#A3A4A4" mask="url(#bj)"/></g><g transform="translate(588.393 67.333)"><mask id="bl" fill="#fff"><use xlink:href="#bk"/></mask><path d="M22.96 1.783L36.325.577c-.453 8.685-1.812 26.036-3.13 34.86-1.252 8.73-4.026 11.576-19.65 12.986L.183 49.63c15.623-1.41 18.397-4.257 19.648-12.987 1.319-8.823 2.678-26.175 3.13-34.86" fill="#A3A4A4" mask="url(#bl)"/></g><g><path d="M599.546 149.744l-.515-17.333h-30.57l.512 17.333h30.573m10.93-8.983c.219 7.456.882 15.21 1.741 20.228-6.054-.912-14.53-1.369-27.168-1.369-12.636 0-21.367.457-27.374 1.21.569-4.86.766-12.77.539-20.366-.196-6.544-.668-13.07-1.398-18.088-.423.299-.992.597-1.413.914-1.962-3.51-5.073-6.844-9.572-8.368 14.064-4.86 22.475-21.141 23.391-33.755-7.453 0-14.471.615-16.889 1.21l-.388-13.067c3.169.753 18.692 1.524 28.596 1.524 12.355 0 27.123-.771 31.539-1.524-.45 8.822-1.797 26.454-3.105 35.419-1.299 9.28-4.248 12.016-21.713 13.384-.1-3.35-2.138-8.963-5.274-13.068 2.559.289 4.757.431 6.631.431 5.945 0 8.63-1.426 9.193-4.081 1.148-4.878 2.018-14.596 2.13-20.386h-20.24c-1.031 13.841-5.756 28.736-20.778 39.84 6.054.914 13.815 1.21 25.01 1.21 12.637 0 20.806-.454 27.085-1.508-.427 5.159-.77 12.615-.543 20.21M495.746 192.462c6.773-8.37 9.994-15.965 12.849-26.298l10.902 4.561c-4.26 11.087-8.152 20.526-11.218 28.281l-12.533-6.544z" fill="#FDFDFD"/><path fill="#A0A0A1" d="M508.596 166.164l13.25-1.225 10.901 4.56-13.25 1.225z"/></g><g transform="translate(508.67 168.778)"><mask id="bn" fill="#fff"><use xlink:href="#bm"/></mask><path d="M11.58 1.742L25.033.508c-4.324 11.166-8.275 20.673-11.39 28.481L.193 30.226c3.111-7.81 7.065-17.318 11.389-28.484" fill="#A3A4A4" mask="url(#bn)"/></g><g stroke="#FFF" stroke-width="5"><path d="M49.138 3.249L1.244 30.237M4.04 231.751h693.347V30.237H4.039z"/><path d="M49.138 30.237V3.25h693.347v201.514h-45.099M742.485 3.249l-45.099 26.988M742.485 204.763l-45.099 26.988M742.485 193.214l-45.099 26.989M742.485 181.666l-45.099 26.988M742.485 170.118l-45.099 26.988M742.485 158.569l-45.099 26.988M742.485 147.02l-45.099 26.989M742.485 135.472l-45.099 26.988M742.485 123.924l-45.099 26.988M742.485 112.376l-45.099 26.988M742.485 100.826l-45.099 26.989M742.485 89.278l-45.099 26.989M742.485 77.73l-45.099 26.988M742.485 66.182L697.386 93.17M742.485 54.633l-45.099 26.989M742.485 43.085l-45.099 26.989M742.485 31.536l-45.099 26.988M742.485 19.988l-45.099 26.988"/></g></g></svg>